<svg aria-hidden="true" style="position: absolute; width: 0; height: 0; overflow: hidden;" version="1.1" xmlns="http://www.w3.org/2000/svg" xmlns:xlink="http://www.w3.org/1999/xlink">
<defs>
<symbol id="group-one" viewBox="0 0 28 32">
<path d="M4.085 0l4.766 4.548-8.851-0.007v22.060h23.149v-8.443l4.766 4.541v-22.7h-23.83zM22.945 17.634l-13.542-12.902h13.542v12.902zM18.737 23.367h-15.074v-14.829h1.069v13.821h14.005v1.008zM6.672 30.679l-0.565-1.157h-0.456l0.817 1.532v0.885h0.415v-0.885l0.817-1.532h-0.463l-0.558 1.157zM8.742 29.522h0.095l0.919 2.424h-0.443l-0.197-0.565h-0.933l-0.197 0.565h-0.436l0.912-2.424h0.279zM8.3 31.047h0.708l-0.354-1.021-0.354 1.021zM11.227 30.645c-0.078-0.088-0.144-0.189-0.194-0.299l-0.003-0.008c-0.033-0.075-0.052-0.163-0.052-0.255 0-0.114 0.029-0.221 0.081-0.314l-0.002 0.003c0.052-0.088 0.126-0.158 0.215-0.203l0.003-0.001c0.095-0.054 0.204-0.075 0.334-0.075 0.123 0 0.225 0.020 0.313 0.068 0.169 0.089 0.282 0.264 0.282 0.465 0 0.076-0.016 0.148-0.045 0.213l0.001-0.003c-0.030 0.066-0.069 0.122-0.116 0.17l0-0c-0.048 0.054-0.102 0.102-0.17 0.15l-0.163 0.123 0.477 0.565c0.069-0.128 0.109-0.281 0.109-0.443 0-0.002 0-0.005-0-0.007v0h0.34c0 0.116-0.007 0.225-0.034 0.334-0.033 0.151-0.094 0.283-0.179 0.398l0.002-0.003 0.354 0.422h-0.463l-0.136-0.163c-0.082 0.054-0.163 0.102-0.252 0.136-0.107 0.038-0.231 0.060-0.359 0.060-0.155 0-0.303-0.032-0.438-0.090l0.007 0.003c-0.113-0.056-0.206-0.14-0.271-0.242l-0.002-0.003c-0.059-0.097-0.094-0.214-0.094-0.339 0-0.099 0.022-0.194 0.061-0.278l-0.002 0.004c0.041-0.068 0.095-0.143 0.163-0.204 0.068-0.068 0.136-0.123 0.225-0.184zM11.418 30.89l-0.048 0.034c-0.053 0.039-0.098 0.084-0.135 0.134l-0.001 0.002c-0.041 0.063-0.066 0.139-0.066 0.222 0 0.068 0.017 0.132 0.046 0.189l-0.001-0.002c0.034 0.061 0.075 0.109 0.136 0.136 0.061 0.041 0.136 0.054 0.218 0.054 0.001 0 0.002 0 0.003 0 0.146 0 0.281-0.051 0.386-0.137l-0.001 0.001-0.538-0.633zM11.513 30.448l0.15-0.102c0.059-0.037 0.109-0.082 0.149-0.135l0.001-0.001c0.030-0.046 0.048-0.102 0.048-0.162 0-0.003-0-0.006-0-0.008v0c-0.004-0.129-0.109-0.232-0.238-0.232-0.005 0-0.010 0-0.014 0l0.001-0c-0.003-0-0.006-0-0.009-0-0.098 0-0.183 0.058-0.222 0.142l-0.001 0.002c-0.020 0.042-0.031 0.091-0.031 0.143 0 0.057 0.014 0.111 0.039 0.159l-0.001-0.002 0.102 0.163 0.027 0.034zM15.748 31.156h-0.409c-0.010 0.101-0.039 0.193-0.084 0.276l0.002-0.004c-0.038 0.072-0.097 0.128-0.168 0.162l-0.002 0.001c-0.076 0.035-0.164 0.055-0.257 0.055-0.010 0-0.020-0-0.030-0.001l0.001 0c-0.003 0-0.006 0-0.009 0-0.089 0-0.173-0.023-0.245-0.063l0.003 0.001c-0.070-0.040-0.127-0.095-0.169-0.161l-0.001-0.002c-0.045-0.072-0.081-0.157-0.101-0.246l-0.001-0.005c-0.020-0.102-0.027-0.211-0.027-0.334v-0.197c0-0.129 0.007-0.245 0.034-0.34 0.020-0.102 0.061-0.191 0.109-0.259s0.102-0.116 0.177-0.157c0.066-0.030 0.143-0.048 0.224-0.048 0.008 0 0.015 0 0.022 0l-0.001-0c0.116 0 0.211 0.020 0.286 0.054 0.068 0.041 0.123 0.095 0.163 0.17 0.034 0.075 0.061 0.163 0.068 0.272h0.422c-0.020-0.163-0.068-0.306-0.136-0.436-0.075-0.123-0.177-0.218-0.313-0.293-0.131-0.065-0.284-0.103-0.447-0.103-0.015 0-0.030 0-0.045 0.001l0.002-0c-0.15 0-0.286 0.020-0.409 0.075s-0.225 0.136-0.313 0.232c-0.082 0.102-0.15 0.225-0.197 0.361s-0.068 0.3-0.068 0.477v0.204c0 0.17 0.020 0.327 0.068 0.463 0.048 0.143 0.109 0.266 0.197 0.361 0.163 0.192 0.406 0.314 0.676 0.314 0.011 0 0.023-0 0.034-0.001l-0.002 0c0.197 0 0.361-0.034 0.497-0.109 0.136-0.068 0.245-0.17 0.32-0.293 0.068-0.123 0.116-0.266 0.136-0.422zM18.063 30.802v-0.136c0-0.177-0.027-0.34-0.075-0.49-0.048-0.136-0.116-0.272-0.204-0.368-0.086-0.099-0.193-0.177-0.314-0.229l-0.006-0.002c-0.117-0.052-0.253-0.082-0.396-0.082-0.004 0-0.009 0-0.013 0h0.001c-0.15 0-0.286 0.027-0.409 0.082-0.123 0.048-0.225 0.129-0.313 0.232s-0.163 0.225-0.204 0.368c-0.054 0.15-0.075 0.313-0.075 0.49v0.136c0 0.184 0.020 0.34 0.068 0.49 0.054 0.15 0.123 0.272 0.211 0.374 0.168 0.193 0.414 0.314 0.689 0.314 0.012 0 0.023-0 0.035-0.001l-0.002 0c0.15 0 0.286-0.027 0.409-0.082 0.129-0.054 0.232-0.136 0.32-0.232 0.088-0.102 0.157-0.225 0.204-0.374 0.048-0.143 0.068-0.306 0.068-0.49zM17.641 30.666v0.136c0 0.136-0.014 0.252-0.041 0.361-0.020 0.102-0.061 0.191-0.109 0.259s-0.109 0.124-0.181 0.162l-0.003 0.001c-0.070 0.034-0.152 0.055-0.239 0.055-0.004 0-0.009-0-0.013-0h0.001c-0.002 0-0.005 0-0.008 0-0.086 0-0.168-0.020-0.241-0.056l0.003 0.001c-0.074-0.040-0.136-0.095-0.183-0.162l-0.001-0.002c-0.048-0.068-0.088-0.157-0.116-0.259-0.026-0.103-0.041-0.221-0.041-0.343 0-0.006 0-0.012 0-0.019v0.001-0.136c0-0.136 0.014-0.252 0.041-0.361 0.027-0.102 0.068-0.191 0.116-0.259s0.109-0.123 0.184-0.157c0.068-0.041 0.15-0.054 0.245-0.054 0.002-0 0.005-0 0.008-0 0.086 0 0.168 0.020 0.241 0.056l-0.003-0.001c0.075 0.034 0.136 0.088 0.184 0.157 0.054 0.068 0.095 0.157 0.116 0.259 0.027 0.109 0.041 0.225 0.041 0.361z"></path>
</symbol>
<symbol id="logo" viewBox="0 0 59 32">
<path d="M15.31 25.356c0.14 0.156 0.215 0.352 0.211 0.553 0.007 0.131-0.019 0.262-0.075 0.383s-0.143 0.229-0.252 0.316c-0.273 0.185-0.61 0.276-0.951 0.255h-1.671v-3.504h1.637c0.323-0.019 0.644 0.063 0.907 0.233 0.106 0.080 0.189 0.18 0.245 0.294s0.080 0.238 0.073 0.361c0.010 0.193-0.058 0.383-0.19 0.536-0.127 0.139-0.303 0.236-0.498 0.274 0.222 0.036 0.422 0.143 0.565 0.3zM13.349 24.827h0.7c0.159 0.011 0.317-0.031 0.445-0.116 0.053-0.043 0.093-0.096 0.12-0.155s0.037-0.123 0.031-0.187c0.005-0.063-0.006-0.127-0.031-0.186s-0.066-0.113-0.117-0.156c-0.132-0.088-0.295-0.13-0.458-0.118h-0.688v0.919zM14.562 26.171c0.056-0.044 0.1-0.099 0.129-0.161s0.041-0.129 0.036-0.195c0.004-0.068-0.009-0.135-0.038-0.198s-0.074-0.118-0.131-0.162c-0.137-0.091-0.305-0.136-0.475-0.127h-0.734v0.964h0.744c0.167 0.009 0.333-0.034 0.47-0.122z"></path>
<path d="M18.656 26.862l-0.911-1.369h-0.342v1.369h-0.783v-3.504h1.483c0.374-0.023 0.744 0.083 1.033 0.298 0.207 0.19 0.332 0.441 0.353 0.707s-0.066 0.529-0.242 0.743c-0.183 0.189-0.433 0.314-0.707 0.356l0.97 1.4h-0.852zM17.403 25.015h0.641c0.445 0 0.667-0.177 0.667-0.531 0.005-0.072-0.008-0.145-0.036-0.212s-0.072-0.13-0.128-0.181c-0.141-0.105-0.322-0.156-0.504-0.142h-0.648l0.008 1.067z"></path>
<path d="M22.939 26.157h-1.561l-0.276 0.705h-0.821l1.434-3.465h0.888l1.428 3.465h-0.822l-0.27-0.705zM22.73 25.627l-0.57-1.479-0.57 1.479h1.141z"></path>
<path d="M28.299 26.863h-0.778l-1.744-2.383v2.383h-0.776v-3.504h0.776l1.744 2.397v-2.397h0.778v3.504z"></path>
<path d="M32.737 26.024c-0.161 0.265-0.406 0.48-0.704 0.618-0.338 0.154-0.714 0.23-1.093 0.221h-1.384v-3.504h1.384c0.378-0.009 0.754 0.065 1.093 0.216 0.298 0.135 0.543 0.348 0.704 0.611 0.16 0.285 0.243 0.6 0.243 0.919s-0.083 0.634-0.243 0.919zM31.847 25.94c0.222-0.233 0.344-0.529 0.344-0.836s-0.122-0.603-0.344-0.836c-0.268-0.211-0.618-0.318-0.974-0.298h-0.54v2.268h0.54c0.355 0.020 0.705-0.087 0.974-0.298z"></path>
<path d="M23.425 3.867c0 0 10.038 3.412 9.825 8.349v8.351c0 0-10.031-3.413-9.821-8.351l-0.004-8.349z"></path>
<path d="M42.194 18.611c1.896-1.175 4.089-1.902 6.378-2.116v-2.614c-2.638 0.915-4.875 2.575-6.378 4.73z"></path>
<path d="M41.055 19.399c1.552-2.813 4.242-4.983 7.517-6.065v-7.532c0 0-14.296 4.86-13.993 11.891v11.889c0 0 0.637-0.217 1.639-0.625 0-0.38 0-0.764 0.046-1.149 0.296-3.264 2.020-6.289 4.792-8.409z"></path>
<path d="M39.695 23.815c0.075-0.825 0.243-1.64 0.5-2.434-1.726 1.831-2.772 4.103-2.989 6.497-0.021 0.226-0.032 0.452-0.038 0.685 0.812-0.351 1.757-0.789 2.75-1.304-0.253-1.132-0.328-2.291-0.222-3.443z"></path>
<path d="M40.264 23.858c-0.095 1.042-0.036 2.090 0.177 3.117 3.906-2.104 8.294-5.355 8.125-9.284v-0.342c-2.791 0.281-5.401 1.379-7.431 3.126-0.475 1.082-0.769 2.222-0.871 3.383z"></path>
</symbol>
<symbol id="group-five" viewBox="0 0 67 32">
<path d="M33.799 15.246c-0.269-0.349-0.431-0.793-0.431-1.274 0-0.050 0.002-0.099 0.005-0.147l-0 0.007v-2.055c0-0.626 0.142-1.102 0.427-1.436 0.284-0.327 0.775-0.484 1.472-0.484 0.654 0 1.116 0.142 1.387 0.412 0.299 0.356 0.448 0.796 0.412 1.23v0.484h-1.159v-0.491c0-0.156-0.007-0.32-0.036-0.476-0.019-0.115-0.078-0.214-0.163-0.284l-0.001-0.001c-0.104-0.068-0.231-0.109-0.368-0.109-0.021 0-0.041 0.001-0.061 0.003l0.003-0c-0.017-0.002-0.038-0.002-0.058-0.002-0.145 0-0.28 0.043-0.392 0.118l0.003-0.002c-0.096 0.078-0.164 0.186-0.191 0.309l-0.001 0.004c-0.036 0.171-0.050 0.341-0.043 0.505v2.496c-0.021 0.242 0.028 0.484 0.142 0.697 0.064 0.071 0.142 0.142 0.242 0.171 0.070 0.029 0.152 0.046 0.237 0.046 0.022 0 0.043-0.001 0.064-0.003l-0.003 0c0.014 0.001 0.030 0.002 0.046 0.002 0.137 0 0.264-0.043 0.369-0.117l-0.002 0.001c0.092-0.075 0.157-0.182 0.177-0.303l0-0.003c0.028-0.164 0.036-0.327 0.036-0.498v-0.505h1.166v0.462c0.036 0.455-0.107 0.91-0.405 1.287-0.263 0.306-0.725 0.462-1.394 0.462-0.676 0-1.188-0.164-1.472-0.498zM38.67 15.268c-0.299-0.32-0.448-0.782-0.448-1.401v-2.162c0-0.604 0.149-1.067 0.448-1.38 0.292-0.32 0.782-0.469 1.479-0.469 0.69 0 1.18 0.156 1.472 0.469 0.299 0.313 0.448 0.775 0.448 1.38v2.162c0 0.612-0.149 1.081-0.448 1.401-0.306 0.32-0.789 0.484-1.472 0.484s-1.18-0.164-1.479-0.484zM40.697 14.748c0.1-0.199 0.149-0.42 0.142-0.64v-2.638c0.007-0.213-0.036-0.434-0.142-0.633-0.063-0.076-0.145-0.135-0.238-0.169l-0.004-0.001c-0.067-0.026-0.144-0.041-0.225-0.041-0.029 0-0.057 0.002-0.084 0.005l0.003-0c-0.024-0.003-0.051-0.005-0.079-0.005-0.081 0-0.159 0.015-0.231 0.042l0.005-0.002c-0.097 0.036-0.179 0.095-0.241 0.17l-0.001 0.001c-0.107 0.199-0.156 0.412-0.142 0.633v2.652c-0.014 0.22 0.036 0.441 0.142 0.64 0.071 0.071 0.149 0.121 0.242 0.156 0.090 0.036 0.193 0.057 0.302 0.057s0.213-0.021 0.308-0.059l-0.006 0.002c0.092-0.036 0.178-0.085 0.249-0.156v-0.014zM43.477 9.92h1.259l0.946 3.982 0.967-3.982h1.223l0.128 5.753h-0.91l-0.092-4.004-0.939 4.004h-0.725l-0.967-4.018-0.092 4.018h-0.91l0.114-5.76zM49.408 9.92h1.963c1.131 0 1.692 0.54 1.692 1.636 0 1.038-0.59 1.564-1.778 1.564h-0.676v2.553h-1.209l0.007-5.76zM51.086 12.373c0.121 0.014 0.242 0 0.356-0.028s0.22-0.078 0.313-0.149c0.135-0.199 0.199-0.427 0.171-0.654 0-0.171-0.014-0.348-0.057-0.519-0.020-0.061-0.052-0.113-0.093-0.157l0 0c-0.042-0.046-0.091-0.084-0.147-0.112l-0.003-0.001c-0.171-0.071-0.356-0.107-0.54-0.092h-0.469v1.714h0.469zM54.812 9.92h1.301l1.33 5.753h-1.124l-0.263-1.33h-1.166l-0.27 1.33h-1.138l1.33-5.76zM55.922 13.675l-0.455-2.418-0.448 2.418h0.903zM58.524 9.92h0.846l1.621 3.278v-3.278h1.003v5.753h-0.804l-1.636-3.428v3.428h-1.031v-5.76zM64.356 13.476l-1.351-3.556h1.138l0.818 2.29 0.775-2.283h1.109l-1.33 3.556v2.19h-1.166v-2.197zM35.669 18.183v0.306h-0.996v2.332h-0.405v-2.332h-0.996v-0.306h2.396zM38.763 20.821h-0.32c-0.003 0-0.006 0-0.010 0-0.028 0-0.054-0.008-0.076-0.022l0.001 0c-0.025-0.015-0.045-0.037-0.057-0.063l-0-0.001-0.284-0.626h-1.372l-0.284 0.626c-0.009 0.028-0.023 0.052-0.043 0.071v0c-0.023 0.018-0.053 0.029-0.086 0.029-0.002 0-0.005-0-0.007-0h-0.32l1.209-2.638h0.427l1.223 2.631zM36.757 19.847h1.145l-0.484-1.074c-0.032-0.068-0.063-0.15-0.089-0.235l-0.004-0.014-0.043 0.142-0.043 0.107-0.484 1.067zM40.853 20.565h0.228c0.133-0.011 0.256-0.038 0.372-0.081l-0.010 0.003 0.164-0.071v-0.59h-0.519c-0.011-0.005-0.021-0.013-0.028-0.021l-0-0c-0.009-0.005-0.016-0.013-0.021-0.021l-0-0v-0.228h0.939v1.010c-0.233 0.147-0.512 0.245-0.811 0.27l-0.007 0c-0.114 0.014-0.235 0.021-0.356 0.021-0.206 0-0.412-0.036-0.604-0.1-0.186-0.065-0.347-0.16-0.486-0.279l0.002 0.002c-0.13-0.115-0.235-0.255-0.31-0.412l-0.003-0.008c-0.071-0.171-0.114-0.356-0.114-0.548-0.001-0.013-0.001-0.029-0.001-0.045 0-0.369 0.165-0.699 0.426-0.921l0.002-0.001c0.135-0.121 0.299-0.213 0.476-0.277 0.19-0.065 0.408-0.102 0.636-0.102 0.125 0 0.247 0.011 0.365 0.033l-0.012-0.002c0.199 0.029 0.379 0.089 0.542 0.175l-0.009-0.004c0.071 0.043 0.142 0.085 0.213 0.142l-0.121 0.156c-0.011 0.016-0.025 0.028-0.042 0.035l-0.001 0c-0.014 0.008-0.031 0.013-0.049 0.014l-0 0c-0.029-0-0.056-0.008-0.079-0.022l0.001 0c-0.050-0.021-0.090-0.040-0.129-0.061l0.008 0.004c-0.192-0.094-0.419-0.15-0.658-0.15-0.011 0-0.022 0-0.033 0l0.002-0c-0.156-0.007-0.32 0.014-0.469 0.071-0.268 0.085-0.478 0.282-0.581 0.534l-0.002 0.006c-0.107 0.284-0.107 0.583 0 0.875 0.057 0.121 0.142 0.235 0.249 0.327 0.183 0.169 0.428 0.272 0.698 0.272 0.047 0 0.094-0.003 0.14-0.009l-0.005 0.001zM44.708 20.523h1.323v0.299h-1.721v-2.631h0.412l-0.014 2.332zM47.41 20.821h-0.42v-2.631h0.42v2.631zM48.946 18.204c0.028 0 0.050 0.021 0.071 0.043l1.764 1.991v-2.062h0.356v2.645h-0.206c-0.028 0-0.057 0-0.085-0.014-0.028-0.013-0.051-0.029-0.071-0.050l-0-0-1.764-1.991v2.055h-0.348v-2.631h0.213l0.071 0.007zM54.187 18.183v0.292h-1.465v0.875h1.188v0.284h-1.188v0.896h1.465v0.284h-1.892v-2.631h1.892zM10.809 1.892l18.382 4.501v15.787l-18.382-4.501v-15.787zM9.628 0.54v17.906l20.736 5.077v-17.892l-20.736-5.084z"></path>
<path d="M20.743 31.836l-20.743-5.099v-17.884l20.743 5.084v17.899z"></path>
<path d="M9.97 1.685l18.148 4.452-7.723 6.656-18.14-4.444 7.716-6.663zM9.628 0.548l-9.628 8.306 20.743 5.084 9.621-8.306-20.736-5.084zM21.902 30.827l8.462-7.289-8.462-2.076v9.372z"></path>
</symbol>
<symbol id="group-four" viewBox="0 0 66 32">
<path  d="M10.209 9.772c-1.865 0-3.372 1.358-3.372 3.044 0 1.678 1.506 3.036 3.372 3.036 1.858 0 3.372-1.358 3.372-3.044 0-1.678-1.514-3.044-3.372-3.044zM35.091 8.796c0-2.326-1.030-4.566-2.864-6.213-1.813-1.604-4.211-2.584-6.838-2.584-0.019 0-0.038 0-0.056 0h0.003c-2.583 0-5.065 0.937-6.892 2.576-1.736 1.527-2.834 3.742-2.864 6.215l-0 0.005v12.862s19.512-1.959 19.512-12.855zM0 25.873c0.020 1.725 0.783 3.268 1.984 4.326l0.006 0.006c1.262 1.115 2.931 1.795 4.758 1.795 0.015 0 0.029-0 0.044-0h-0.002c1.795 0 3.52-0.648 4.792-1.795 1.208-1.061 1.973-2.601 1.998-4.32l0-0.004v-8.952s-13.581 1.366-13.581 8.944zM6.79 27.481c-0.351 0-0.702-0.094-0.991-0.273-0.285-0.17-0.51-0.415-0.651-0.708l-0.004-0.010c-0.086-0.18-0.136-0.392-0.136-0.615 0-0.111 0.012-0.22 0.036-0.324l-0.002 0.010c0.078-0.329 0.252-0.609 0.49-0.818l0.002-0.002c0.25-0.226 0.562-0.375 0.905-0.437 0.351-0.062 0.702-0.031 1.030 0.094 0.328 0.117 0.601 0.328 0.796 0.585 0.188 0.247 0.301 0.559 0.301 0.898 0 0.451-0.201 0.856-0.518 1.129l-0.002 0.002c-0.156 0.156-0.359 0.273-0.578 0.351-0.211 0.078-0.445 0.125-0.679 0.125v-0.008zM19.2 24.601v3.325h-0.679v-3.333h0.687zM20.527 26.021v0.531h-1.506v-0.531h1.514zM20.691 24.593v0.546h-1.67v-0.546h1.67zM23.828 26.185v0.156c0 0.25-0.039 0.484-0.109 0.679-0.062 0.203-0.156 0.375-0.289 0.515-0.125 0.14-0.273 0.25-0.445 0.328s-0.367 0.109-0.578 0.109c-0.016 0.001-0.035 0.001-0.055 0.001-0.385 0-0.731-0.169-0.967-0.437l-0.001-0.001c-0.125-0.14-0.219-0.312-0.289-0.515-0.069-0.2-0.109-0.43-0.109-0.67 0-0.003 0-0.006 0-0.010v0-0.156c0-0.258 0.039-0.484 0.109-0.679 0.062-0.203 0.156-0.375 0.289-0.515 0.125-0.148 0.273-0.25 0.445-0.328s0.367-0.109 0.578-0.109 0.398 0.031 0.57 0.109c0.18 0.078 0.328 0.18 0.453 0.328 0.125 0.14 0.219 0.312 0.289 0.515 0.078 0.195 0.109 0.421 0.109 0.679zM23.126 26.341v-0.156c0-0.18-0.008-0.336-0.039-0.468-0.027-0.13-0.076-0.245-0.143-0.347l0.002 0.004c-0.11-0.166-0.297-0.274-0.509-0.274-0.013 0-0.026 0-0.039 0.001l0.002-0c-0.007-0-0.014-0-0.022-0-0.214 0-0.403 0.108-0.515 0.271l-0.001 0.002c-0.055 0.094-0.101 0.203-0.133 0.336-0.031 0.14-0.047 0.297-0.047 0.468v0.164c0 0.18 0.016 0.328 0.047 0.468 0.031 0.133 0.078 0.25 0.14 0.336 0.070 0.094 0.14 0.164 0.234 0.211 0.086 0.047 0.187 0.078 0.312 0.078 0.109 0 0.211-0.031 0.304-0.078 0.093-0.051 0.169-0.122 0.225-0.208l0.001-0.002c0.062-0.086 0.109-0.203 0.14-0.336 0.031-0.14 0.047-0.297 0.047-0.468zM26.053 27.052c0-0.004 0-0.009 0-0.014 0-0.051-0.009-0.1-0.025-0.145l0.001 0.003c-0.022-0.054-0.056-0.099-0.101-0.132l-0.001-0.001-0.195-0.125c-0.086-0.039-0.195-0.078-0.336-0.117l-0.429-0.164c-0.137-0.063-0.255-0.136-0.363-0.221l0.004 0.003c-0.101-0.078-0.18-0.18-0.234-0.281-0.059-0.107-0.094-0.235-0.094-0.371 0-0.004 0-0.008 0-0.012v0.001c0-0.001 0-0.003 0-0.004 0-0.136 0.035-0.264 0.096-0.375l-0.002 0.004c0.062-0.117 0.148-0.211 0.258-0.297 0.109-0.078 0.234-0.14 0.39-0.187 0.14-0.040 0.301-0.063 0.468-0.063 0.242 0 0.473 0.049 0.683 0.138l-0.012-0.004c0.18 0.086 0.32 0.203 0.421 0.359s0.156 0.328 0.156 0.531h-0.687c0-0.003 0-0.007 0-0.012 0-0.090-0.023-0.175-0.064-0.249l0.001 0.003c-0.042-0.074-0.103-0.133-0.177-0.171l-0.002-0.001c-0.086-0.044-0.188-0.070-0.296-0.070-0.006 0-0.012 0-0.017 0l0.001-0c-0.005-0-0.011-0-0.017-0-0.098 0-0.192 0.020-0.277 0.057l0.005-0.002c-0.075 0.031-0.136 0.082-0.179 0.147l-0.001 0.001c-0.039 0.056-0.062 0.125-0.062 0.2 0 0.001 0 0.002 0 0.003v-0c0 0.055 0.016 0.101 0.039 0.156l0.133 0.125c0.139 0.079 0.301 0.153 0.471 0.212l0.021 0.006c0.18 0.047 0.343 0.109 0.476 0.18 0.14 0.070 0.258 0.148 0.351 0.234 0.173 0.158 0.281 0.384 0.281 0.635 0 0.007-0 0.014-0 0.021l0-0.001c0 0.14-0.031 0.273-0.078 0.39-0.062 0.109-0.148 0.211-0.25 0.289-0.109 0.078-0.234 0.14-0.39 0.18-0.139 0.038-0.299 0.059-0.464 0.059-0.35 0-0.678-0.097-0.957-0.267l0.008 0.005c-0.133-0.086-0.234-0.203-0.312-0.336-0.078-0.14-0.117-0.304-0.117-0.492h0.687c0 0.109 0.016 0.195 0.047 0.265 0.039 0.078 0.078 0.133 0.14 0.172 0.055 0.047 0.125 0.078 0.211 0.101 0.078 0.016 0.172 0.031 0.265 0.031 0.117 0 0.219-0.023 0.297-0.055 0.134-0.054 0.226-0.183 0.226-0.334 0-0.003-0-0.007-0-0.010v0zM28.691 24.601v3.325h-0.679v-3.333h0.679zM29.721 24.601v0.531h-2.716v-0.539h2.716zM32.343 27.395v0.531h-1.772v-0.531h1.772zM30.798 24.593v3.333h-0.687v-3.333h0.687zM32.109 25.951v0.523h-1.538v-0.523h1.538zM32.343 24.601v0.531h-1.772v-0.539h1.772zM32.741 24.601h1.249c0.25 0 0.468 0.031 0.648 0.109 0.187 0.078 0.328 0.187 0.429 0.343 0.101 0.148 0.148 0.328 0.148 0.546 0 0.18-0.031 0.336-0.094 0.46-0.055 0.125-0.141 0.234-0.25 0.312-0.109 0.086-0.234 0.156-0.39 0.211l-0.211 0.109h-1.077v-0.531h0.796c0.003 0 0.006 0 0.009 0 0.105 0 0.204-0.026 0.291-0.072l-0.003 0.002c0.078-0.039 0.141-0.101 0.179-0.172 0.039-0.074 0.063-0.161 0.063-0.254 0-0.004-0-0.008-0-0.012v0.001c0-0.004 0-0.009 0-0.014 0-0.097-0.023-0.189-0.064-0.27l0.002 0.003c-0.039-0.078-0.101-0.14-0.177-0.178l-0.002-0.001c-0.083-0.040-0.179-0.063-0.282-0.063-0.008 0-0.016 0-0.024 0l0.001-0h-0.546v2.794h-0.695v-3.333zM34.607 27.926l-0.765-1.483h0.726l0.773 1.452v0.031h-0.734zM38.205 26.739h-0.851v-0.539h0.859c0.007 0 0.014 0 0.022 0 0.105 0 0.205-0.023 0.295-0.065l-0.004 0.002c0.078-0.039 0.141-0.101 0.179-0.18s0.062-0.164 0.062-0.265c-0.001-0.099-0.024-0.193-0.064-0.277l0.002 0.004c-0.038-0.088-0.1-0.16-0.178-0.21l-0.002-0.001c-0.085-0.049-0.186-0.078-0.295-0.078-0.006 0-0.012 0-0.019 0l0.001-0h-0.624v2.794h-0.679v-3.333h1.296c0.265 0 0.484 0.055 0.671 0.148 0.345 0.167 0.578 0.514 0.578 0.916 0 0.013-0 0.025-0.001 0.038l0-0.002c0 0.211-0.047 0.39-0.148 0.554-0.101 0.156-0.242 0.281-0.429 0.367-0.187 0.078-0.406 0.125-0.671 0.125zM42.162 27.395v0.531h-1.772v-0.531h1.772zM40.617 24.593v3.333h-0.687v-3.333h0.687zM41.928 25.951v0.523h-1.538v-0.523h1.538zM42.162 24.601v0.531h-1.772v-0.539h1.772zM44.098 24.601v3.325h-0.687v-3.333h0.687zM45.12 24.601v0.531h-2.716v-0.539h2.716zM47.742 27.395v0.531h-1.772v-0.531h1.772zM46.205 24.585v3.333h-0.687v-3.333h0.687zM47.524 25.943v0.523h-1.553v-0.523h1.545zM47.758 24.593v0.531h-1.787v-0.539h1.772zM48.148 24.593h1.249c0.25 0 0.468 0.031 0.656 0.109 0.179 0.078 0.328 0.187 0.421 0.343 0.101 0.148 0.156 0.328 0.156 0.546 0 0.18-0.039 0.336-0.094 0.46-0.062 0.125-0.148 0.234-0.258 0.312-0.109 0.086-0.234 0.156-0.382 0.211l-0.219 0.109h-1.077v-0.531h0.796c0.005 0 0.011 0 0.016 0 0.105 0 0.205-0.026 0.292-0.072l-0.003 0.002c0.078-0.039 0.141-0.101 0.179-0.172 0.039-0.074 0.063-0.161 0.063-0.254 0-0.004-0-0.008-0-0.012v0.001c0-0.004 0-0.009 0-0.014 0-0.097-0.023-0.189-0.064-0.27l0.002 0.003c-0.039-0.078-0.101-0.14-0.177-0.178l-0.002-0.001c-0.083-0.040-0.18-0.063-0.282-0.063-0.010 0-0.021 0-0.031 0.001l0.001-0h-0.546v2.794h-0.687v-3.333zM50.021 27.918l-0.765-1.483h0.726l0.765 1.452v0.031h-0.734zM52.886 27.044c0-0.004 0-0.009 0-0.014 0-0.051-0.009-0.1-0.025-0.145l0.001 0.003c-0.022-0.054-0.056-0.099-0.101-0.132l-0.001-0.001-0.195-0.125c-0.086-0.039-0.195-0.078-0.336-0.117l-0.429-0.164c-0.134-0.064-0.249-0.136-0.355-0.221l0.003 0.003c-0.2-0.143-0.328-0.375-0.328-0.636 0-0.010 0-0.019 0.001-0.029l-0 0.001c-0-0.005-0-0.012-0-0.018 0-0.13 0.032-0.253 0.088-0.361l-0.002 0.004c0.062-0.117 0.148-0.211 0.258-0.297 0.109-0.078 0.234-0.14 0.39-0.187 0.14-0.040 0.301-0.063 0.468-0.063 0.242 0 0.473 0.049 0.683 0.138l-0.012-0.004c0.179 0.086 0.32 0.203 0.421 0.359s0.156 0.328 0.156 0.531h-0.687c0-0.008 0.001-0.017 0.001-0.025 0-0.085-0.020-0.165-0.057-0.235l0.001 0.003c-0.044-0.075-0.108-0.134-0.185-0.171l-0.003-0.001c-0.086-0.044-0.188-0.070-0.296-0.070-0.006 0-0.012 0-0.017 0l0.001-0c-0.005-0-0.011-0-0.017-0-0.098 0-0.192 0.020-0.277 0.057l0.005-0.002c-0.075 0.031-0.136 0.082-0.179 0.147l-0.001 0.001c-0.039 0.056-0.062 0.125-0.062 0.2 0 0.001 0 0.002 0 0.003v-0c0 0.055 0.016 0.101 0.047 0.156 0.023 0.039 0.070 0.078 0.125 0.125 0.139 0.079 0.301 0.153 0.471 0.212l0.021 0.006c0.179 0.047 0.343 0.109 0.476 0.18 0.141 0.070 0.258 0.148 0.351 0.234 0.173 0.158 0.281 0.384 0.281 0.635 0 0.007-0 0.014-0 0.021l0-0.001c0 0.14-0.031 0.273-0.078 0.39-0.062 0.109-0.141 0.211-0.25 0.289s-0.234 0.14-0.39 0.18c-0.139 0.038-0.299 0.059-0.464 0.059-0.35 0-0.678-0.097-0.957-0.267l0.008 0.005c-0.133-0.086-0.234-0.203-0.312-0.336-0.078-0.14-0.117-0.304-0.117-0.492h0.687c0 0.109 0.016 0.195 0.055 0.265 0.031 0.078 0.078 0.133 0.133 0.172 0.055 0.047 0.125 0.078 0.211 0.101 0.078 0.016 0.172 0.031 0.265 0.031 0.125 0 0.219-0.023 0.297-0.055 0.138-0.052 0.234-0.183 0.234-0.337 0-0.002-0-0.005-0-0.007v0z"></path>
</symbol>
<symbol id="group-three" viewBox="0 0 34 32">
<path d="M5.315 31.391l0.039 0.008 0.031 0.023 0.172 0.156c-0.141 0.133-0.304 0.234-0.484 0.312-0.219 0.078-0.453 0.117-0.695 0.109-0.219 0-0.437-0.031-0.64-0.101-0.366-0.121-0.655-0.389-0.801-0.733l-0.003-0.009c-0.072-0.168-0.114-0.363-0.114-0.568 0-0.212 0.045-0.414 0.125-0.596l-0.004 0.009c0.078-0.164 0.187-0.32 0.336-0.453 0.145-0.123 0.317-0.222 0.504-0.286l0.011-0.003c0.196-0.068 0.421-0.107 0.656-0.107 0.226 0 0.443 0.036 0.647 0.104l-0.015-0.004c0.164 0.062 0.328 0.156 0.46 0.258l-0.148 0.172c-0.009 0.012-0.019 0.022-0.031 0.031l-0 0c-0.015 0.010-0.034 0.016-0.055 0.016-0.003 0-0.006-0-0.008-0l0 0c-0.024-0.003-0.045-0.011-0.063-0.024l0 0-0.078-0.039-0.101-0.062c-0.16-0.080-0.348-0.126-0.547-0.126-0.019 0-0.038 0-0.057 0.001l0.003-0c-0.156 0-0.328 0.031-0.476 0.078-0.283 0.089-0.507 0.293-0.622 0.555l-0.002 0.006c-0.055 0.156-0.086 0.312-0.078 0.468-0.001 0.016-0.001 0.035-0.001 0.054 0 0.444 0.285 0.821 0.681 0.959l0.007 0.002c0.133 0.047 0.281 0.078 0.437 0.078l0.265-0.016c0.216-0.023 0.408-0.107 0.564-0.236l-0.002 0.001c0.022-0.022 0.052-0.037 0.085-0.039l0-0zM10.295 30.579c0 0.195-0.039 0.39-0.117 0.57-0.078 0.172-0.18 0.32-0.328 0.445-0.14 0.133-0.312 0.234-0.507 0.297-0.421 0.133-0.89 0.133-1.311 0-0.196-0.069-0.365-0.17-0.509-0.298l0.002 0.001c-0.137-0.121-0.248-0.27-0.324-0.437l-0.003-0.008c-0.156-0.375-0.156-0.78 0-1.147 0.078-0.172 0.187-0.32 0.328-0.453 0.148-0.125 0.312-0.219 0.507-0.281 0.196-0.067 0.421-0.105 0.656-0.105s0.46 0.038 0.67 0.109l-0.015-0.004c0.187 0.062 0.367 0.164 0.507 0.289 0.274 0.243 0.445 0.595 0.445 0.988 0 0.012-0 0.024-0 0.036l0-0.002zM9.842 30.579c0-0.156-0.023-0.312-0.078-0.46-0.106-0.269-0.324-0.474-0.594-0.56l-0.007-0.002c-0.312-0.101-0.648-0.101-0.952 0-0.14 0.047-0.265 0.125-0.367 0.219-0.101 0.101-0.179 0.219-0.234 0.343-0.109 0.297-0.109 0.624 0 0.921 0.105 0.27 0.323 0.475 0.594 0.56l0.007 0.002c0.312 0.094 0.648 0.094 0.952 0 0.273-0.092 0.487-0.296 0.591-0.555l0.002-0.006c0.062-0.148 0.086-0.304 0.078-0.46zM13.69 31.063l0.039 0.101 0.109-0.203 1.101-1.717 0.062-0.047c0.022-0.005 0.046-0.009 0.072-0.009 0.008 0 0.015 0 0.023 0.001l-0.001-0h0.32v2.779h-0.39v-2.224l-1.101 1.733c-0.015 0.027-0.036 0.048-0.062 0.062l-0.001 0c-0.027 0.015-0.059 0.023-0.093 0.023-0 0-0.001 0-0.001 0h-0.062c-0.003 0-0.005 0-0.008 0-0.034 0-0.066-0.009-0.094-0.024l0.001 0c-0.027-0.015-0.048-0.036-0.062-0.062l-0-0.001-1.139-1.748v2.232h-0.375v-2.771h0.328l0.094 0.008c0.023 0.008 0.047 0.031 0.055 0.055l1.124 1.717c0.023 0.023 0.047 0.055 0.062 0.094zM17.826 30.923v1.046h-0.429v-2.779h0.96c0.187 0 0.367 0.016 0.546 0.062 0.133 0.031 0.265 0.086 0.375 0.172 0.094 0.078 0.164 0.164 0.211 0.273 0.055 0.109 0.078 0.234 0.078 0.351 0 0.002 0 0.005 0 0.008 0 0.254-0.122 0.481-0.31 0.623l-0.002 0.001c-0.117 0.086-0.242 0.148-0.39 0.187-0.156 0.047-0.336 0.070-0.515 0.062h-0.523zM17.826 30.626h0.523c0.117 0 0.234-0.016 0.336-0.039 0.093-0.028 0.173-0.071 0.244-0.126l-0.002 0.001c0.12-0.097 0.195-0.243 0.195-0.408 0-0.005-0-0.010-0-0.015v0.001c0.001-0.009 0.001-0.019 0.001-0.029 0-0.069-0.015-0.134-0.041-0.192l0.001 0.003c-0.037-0.078-0.090-0.143-0.155-0.194l-0.001-0.001c-0.144-0.095-0.32-0.151-0.51-0.151-0.024 0-0.048 0.001-0.071 0.003l0.003-0h-0.523v1.147zM23.618 31.969h-0.336c-0.003 0-0.006 0-0.009 0-0.031 0-0.061-0.009-0.086-0.024l0.001 0c-0.023-0.016-0.041-0.037-0.054-0.061l-0-0.001-0.297-0.679h-1.475l-0.297 0.679c-0.013 0.026-0.031 0.047-0.054 0.062l-0.001 0c-0.024 0.015-0.054 0.024-0.086 0.024-0.006 0-0.011-0-0.016-0.001l0.001 0h-0.336l1.28-2.779h0.453l1.303 2.779zM21.487 30.939h1.218l-0.515-1.132c-0.039-0.086-0.070-0.172-0.094-0.265l-0.055 0.148-0.047 0.117-0.507 1.132zM25.483 29.198l0.062 0.055 1.889 2.092v-2.154h0.39v2.779h-0.219c-0.031 0-0.062 0-0.094-0.016-0.027-0.014-0.051-0.032-0.070-0.054l-0-0-1.873-2.092v2.162h-0.39v-2.779h0.226l0.078 0.008zM30.993 30.86v1.108h-0.429v-1.108l-1.194-1.67h0.39c0.001-0 0.002-0 0.004-0 0.030 0 0.059 0.009 0.083 0.024l-0.001-0 0.062 0.062 0.741 1.077c0.047 0.071 0.091 0.153 0.128 0.239l0.004 0.011 0.055-0.117 0.078-0.133 0.734-1.093c0.016-0.021 0.034-0.039 0.054-0.054l0.001-0c0.023-0.015 0.051-0.024 0.081-0.024 0.005 0 0.009 0 0.013 0.001l-0.001-0h0.39l-1.194 1.678zM13.471 24.523l0.57 0.047c2.877-1.081 5.273-2.884 7.044-5.192l0.028-0.037c1.57-2.053 2.515-4.656 2.515-7.479 0-0.076-0.001-0.152-0.002-0.228l0 0.011-3.2-2.732c0.211 0.902 0.332 1.938 0.332 3.002 0 2.046-0.447 3.987-1.249 5.731l0.035-0.085c-1.353 2.897-3.432 5.261-6.008 6.923l-0.064 0.039z"></path>
<path d="M12.332 24.39l0.078 0.016c2.935-1.787 5.167-4.285 6.416-7.165 1.249-2.888 1.452-6.025 0.585-9.007l-4.558-3.902c1.842 3.2 2.583 6.79 2.139 10.341-0.526 3.801-2.205 7.139-4.666 9.724l0.007-0.007zM27.809 14.861c-0.78 2.989-2.661 5.69-5.37 7.688-0.796 0.585-1.647 1.116-2.552 1.561 2.273-0.566 4.26-1.554 5.967-2.883l-0.036 0.027c1.63-1.266 2.931-2.877 3.806-4.729l0.034-0.079-1.85-1.584z"></path>
<path d="M27.083 14.423l-2.638-2.256c-0.072 2.74-0.989 5.253-2.499 7.302l0.025-0.035c-1.656 2.239-3.828 4.006-6.346 5.142l-0.101 0.041h0.008c0.593 0 1.186-0.023 1.772-0.086 2.502-0.867 4.638-2.238 6.375-4.002l0.002-0.002c1.614-1.64 2.801-3.706 3.376-6.013l0.019-0.090zM12.714 2.693l-3.145-2.693c-2.796 0.905-5.15 2.53-6.919 4.659l-0.020 0.024c-1.611 1.944-2.598 4.456-2.63 7.197l-0 0.007c0.044 3.044 1.249 5.799 3.189 7.849l-0.005-0.005c2.053 2.24 4.917 3.824 8.148 4.519 2.888-3.005 4.574-6.712 4.823-10.591 0.242-3.871-0.96-7.719-3.442-10.966zM34.341 14.010c-0.008-3.38-1.584-6.611-4.371-8.999-2.801-2.327-6.435-3.739-10.398-3.739-0.049 0-0.097 0-0.146 0.001l0.007-0c-1.819 0-3.629 0.289-5.331 0.851l19.239 16.445c0.628-1.338 0.996-2.904 0.999-4.557v-0.001z"></path>
</symbol>
<symbol id="group-two" viewBox="0 0 25 32">
<path d="M10.529 1.803h-0.080l-0.388-0.012h-0.283c-0.018-0-0.039-0-0.060-0-0.26 0-0.519 0.007-0.776 0.020l0.036-0.002c-2.24 0.123-4.431 0.689-6.468 1.649l-0.265 0.129v13.625l0.622-0.209c1.995-0.718 4.297-1.147 6.695-1.175l0.013-0v1.791l-0.652 0.018h-0.049c-3.103 0.172-5.971 1.029-8.503 2.421l0.103-0.052v-17.483c1.38-0.817 2.977-1.482 4.667-1.911l0.127-0.027c1.352-0.364 2.905-0.577 4.506-0.585l0.005-0h0.265c1.123 0.004 2.21 0.149 3.247 0.42l-0.090-0.020v1.766c-0.627-0.155-1.371-0.273-2.132-0.33l-0.046-0.003h-0.043c-0.154-0.012-0.308-0.031-0.449-0.031zM13.631 3.606c0.348 0.022 0.754 0.035 1.163 0.035 1.701 0 3.351-0.219 4.922-0.631l-0.135 0.030c1.734-0.442 3.254-1.051 4.667-1.829l-0.101 0.051v17.163c-1.38 0.82-2.976 1.489-4.667 1.923l-0.127 0.028c-1.477 0.375-2.991 0.572-4.511 0.578-0.031 0-0.068 0-0.105 0-1.18 0-2.325-0.148-3.419-0.427l0.095 0.021v-17.274c0.639 0.156 1.396 0.274 2.17 0.33l0.046 0.003zM22.369 3.742l-0.622 0.209c-2.067 0.744-4.451 1.174-6.936 1.174-0.389 0-0.776-0.011-1.16-0.031l0.054 0.002-0.505-0.031v14.012l0.431 0.037c0.356 0.027 0.771 0.043 1.19 0.043 1.458 0 2.871-0.189 4.217-0.542l-0.115 0.026c1.218-0.313 2.275-0.707 3.277-1.195l-0.101 0.045 0.271-0.123v-13.625z"></path>
<path d="M1.686 25.975c-0.168-0.171-0.401-0.278-0.66-0.278-0.012 0-0.025 0-0.037 0.001l0.002-0c-0.135 0-0.271 0.025-0.4 0.074-0.346 0.139-0.586 0.471-0.586 0.859 0 0.016 0 0.032 0.001 0.048l-0-0.002v2.338c0 0.16 0.025 0.326 0.092 0.474 0.062 0.123 0.135 0.228 0.234 0.314 0.092 0.080 0.203 0.135 0.32 0.166s0.234 0.049 0.351 0.049c0.536-0.010 0.966-0.447 0.966-0.984 0-0 0-0 0-0v0-0.258h-0.615v0.203c0.006 0.074 0 0.148-0.031 0.209-0.020 0.053-0.049 0.098-0.086 0.135v0c-0.069 0.053-0.157 0.085-0.252 0.086h-0c-0.012 0.002-0.027 0.003-0.041 0.003-0.102 0-0.192-0.049-0.248-0.125l-0.001-0.001c-0.054-0.084-0.086-0.187-0.086-0.297 0-0.006 0-0.012 0-0.018l-0 0.001v-2.178c0-0.123 0.025-0.24 0.080-0.345 0.055-0.087 0.151-0.144 0.26-0.144 0.012 0 0.025 0.001 0.037 0.002l-0.001-0c0.003-0 0.007-0 0.011-0 0.106 0 0.2 0.050 0.26 0.129l0.001 0.001c0.065 0.083 0.105 0.189 0.105 0.303 0 0.002 0 0.003-0 0.004v-0 0.209h0.603v-0.24c0-0.002 0-0.005 0-0.008 0-0.281-0.105-0.537-0.278-0.732l0.001 0.001zM5.311 25.951c-0.187-0.157-0.431-0.252-0.697-0.252-0.129 0-0.254 0.023-0.369 0.064l0.008-0.002c-0.123 0.043-0.228 0.105-0.32 0.185-0.105 0.098-0.185 0.209-0.24 0.332-0.062 0.142-0.092 0.295-0.086 0.455v2.234c-0.006 0.16 0.025 0.314 0.086 0.462 0.055 0.123 0.135 0.228 0.24 0.308 0.092 0.092 0.197 0.16 0.32 0.203 0.108 0.040 0.233 0.063 0.363 0.063s0.255-0.023 0.37-0.066l-0.007 0.002c0.38-0.131 0.648-0.486 0.648-0.904 0-0.022-0.001-0.044-0.002-0.066l0 0.003v-2.24c0.001-0.013 0.001-0.028 0.001-0.043 0-0.291-0.123-0.553-0.32-0.738l-0.001-0.001zM5.028 28.966c0.001 0.011 0.002 0.023 0.002 0.036 0 0.114-0.048 0.217-0.125 0.29l-0 0c-0.077 0.064-0.177 0.103-0.286 0.103s-0.209-0.039-0.287-0.104l0.001 0.001c-0.077-0.073-0.125-0.176-0.125-0.29 0-0.013 0.001-0.025 0.002-0.038l-0 0.002v-2.234c-0.001-0.011-0.002-0.023-0.002-0.036 0-0.114 0.048-0.217 0.125-0.29l0-0c0.077-0.064 0.177-0.103 0.286-0.103s0.209 0.039 0.287 0.104l-0.001-0.001c0.077 0.073 0.125 0.176 0.125 0.29 0 0.013-0.001 0.025-0.002 0.038l0-0.002v2.234zM10.074 29.969v-4.246h-0.591l-0.769 2.246h-0.012l-0.775-2.246h-0.578v4.24h0.603v-2.585h0.012l0.591 1.828h0.308l0.597-1.822h0.006v2.578h0.609zM13.514 26.031c-0.092-0.111-0.209-0.185-0.345-0.234-0.126-0.043-0.27-0.068-0.421-0.068-0.006 0-0.011 0-0.017 0h-0.898v4.24h0.603v-1.662h0.308c0.191 0.012 0.375-0.025 0.548-0.111 0.244-0.153 0.417-0.4 0.467-0.689l0.001-0.006c0.024-0.143 0.037-0.307 0.037-0.474 0-0.216-0.023-0.426-0.066-0.629l0.004 0.020c-0.042-0.154-0.119-0.287-0.222-0.394l0 0zM13.206 27.323c-0.006 0.074-0.025 0.148-0.062 0.215-0.037 0.062-0.086 0.123-0.154 0.148-0.078 0.039-0.171 0.062-0.269 0.062-0.005 0-0.010-0-0.015-0h-0.276v-1.446h0.308c0.098 0 0.185 0.012 0.277 0.055 0.062 0.031 0.111 0.086 0.142 0.154 0.030 0.069 0.048 0.149 0.049 0.233v0.579zM16.369 25.729h-0.492l-0.923 4.24h0.603l0.178-0.911h0.818l0.185 0.911h0.597l-0.954-4.24zM15.815 28.48l0.302-1.538h0.006l0.295 1.538h-0.603zM20.277 28.283h-0.012l-0.911-2.554h-0.578v4.24h0.603v-2.548h0.012l0.917 2.548h0.566v-4.246h-0.603v2.554zM23.969 25.729l-0.492 1.686h-0.006l-0.492-1.686h-0.634l0.831 2.449v1.785h0.603v-1.785l0.831-2.449h-0.64zM0 31.163h0.289v0.818h0.203v-0.818h0.289v-0.166h-0.782v0.166zM2.449 30.997l-0.382 0.985h0.209l0.080-0.222h0.394l0.080 0.222h0.215l-0.388-0.985h-0.209zM2.418 31.594l0.129-0.369 0.135 0.369h-0.265zM4.862 31.618h0.234v0.123c-0.063 0.052-0.145 0.085-0.234 0.086h-0c-0.005 0-0.011 0.001-0.017 0.001-0.078 0-0.147-0.036-0.192-0.092l-0-0c-0.047-0.066-0.074-0.148-0.074-0.236 0-0.008 0-0.016 0.001-0.023l-0 0.001c0-0.215 0.092-0.326 0.283-0.326 0.006-0.001 0.013-0.001 0.020-0.001 0.096 0 0.177 0.065 0.202 0.153l0 0.001 0.197-0.037c-0.043-0.191-0.185-0.289-0.418-0.289-0.006-0-0.012-0-0.019-0-0.125 0-0.24 0.047-0.327 0.124l0-0c-0.088 0.087-0.143 0.208-0.143 0.342 0 0.014 0.001 0.028 0.002 0.041l-0-0.002c0 0.135 0.037 0.271 0.123 0.369 0.088 0.092 0.211 0.149 0.347 0.149 0.010 0 0.020-0 0.030-0.001l-0.001 0c0.154 0 0.308-0.055 0.418-0.16v-0.388h-0.431v0.166zM7.335 30.997h-0.197v0.985h0.689v-0.166h-0.492v-0.818zM9.428 30.997h-0.203v0.985h0.203v-0.985zM11.471 31.655l-0.406-0.658h-0.191v0.985h0.185v-0.64l0.394 0.64h0.197v-0.985h-0.185v0.658zM13.317 31.551h0.492v-0.166h-0.492v-0.222h0.523v-0.166h-0.726v0.985h0.751v-0.166h-0.554v-0.265zM17.791 31.385h-0.388v-0.388h-0.197v0.985h0.197v-0.431h0.388v0.431h0.197v-0.985h-0.197v0.388zM19.649 31.551h0.492v-0.166h-0.492v-0.222h0.529v-0.166h-0.726v0.985h0.745v-0.166h-0.548v-0.265zM22.166 31.551c0.172-0.031 0.258-0.123 0.258-0.277 0.001-0.008 0.002-0.018 0.002-0.028 0-0.076-0.037-0.144-0.093-0.187l-0.001-0c-0.074-0.039-0.162-0.063-0.256-0.063-0.012 0-0.023 0-0.035 0.001l0.002-0h-0.418v0.985h0.197v-0.412h0.037c0.043 0 0.086 0.006 0.123 0.025 0.031 0.018 0.062 0.043 0.074 0.074l0.215 0.308h0.234l-0.123-0.185c-0.049-0.098-0.123-0.185-0.215-0.246zM21.969 31.415h-0.148v-0.246h0.154c0.068-0.006 0.142 0 0.203 0.018 0.031 0.023 0.051 0.059 0.051 0.099 0 0.043-0.022 0.081-0.056 0.103l-0 0c-0.050 0.016-0.108 0.026-0.168 0.026-0.012 0-0.025-0-0.037-0.001l0.002 0zM24.068 31.551h0.492v-0.166h-0.492v-0.222h0.529v-0.166h-0.726v0.985h0.745v-0.166h-0.548v-0.265z"></path>
</symbol>
<symbol id="antenna" viewBox="0 0 32 32">
<path fill="#2e2f42" style="fill: var(--color2, #2e2f42)" d="M30.773 22.098l-8.443-8.505 0.937-4.615c0.242 0.094 0.499 0.144 0.758 0.146h0.006c1.192 0.014 2.17-0.941 2.184-2.133s-0.941-2.17-2.133-2.184c-1.192-0.014-2.17 0.941-2.184 2.133-0.003 0.255 0.039 0.509 0.125 0.749l-4.96 0.605-8.091-8.133c-0.099-0.101-0.235-0.159-0.377-0.16-0.14 0.001-0.274 0.056-0.373 0.155l-1.513 1.504c-0.208 0.208-0.208 0.546 0 0.754l0.814 0.826c-3.153 5.798-2.129 12.978 2.519 17.663 0.043 0.041 0.092 0.074 0.146 0.098-0.034 0.18-0.051 0.364-0.052 0.547v6.187h-6.4c-1.472 0.002-2.665 1.195-2.667 2.667v1.067c0 0.295 0.239 0.533 0.533 0.533h24.533c0.295 0 0.533-0.239 0.533-0.533v-1.067c-0.002-1.472-1.195-2.665-2.667-2.667h-6.4v-2.742c1.003 0.21 2.024 0.317 3.049 0.32 2.458-0.003 4.877-0.615 7.040-1.783l0.818 0.823c0.099 0.101 0.235 0.159 0.377 0.16 0.14-0.001 0.274-0.056 0.373-0.155l1.513-1.504c0.208-0.208 0.208-0.546 0-0.754zM23.28 6.233c0.418-0.415 1.093-0.414 1.509 0.004s0.414 1.093-0.004 1.508c-0.2 0.199-0.47 0.31-0.752 0.31h-0.003c-0.589-0.003-1.064-0.483-1.061-1.072 0.002-0.282 0.115-0.552 0.314-0.751h-0.002zM22.024 9.738l-0.598 2.946-1.175-1.182 1.774-1.763zM21.419 8.836l-1.92 1.909-1.485-1.493 3.405-0.415zM24.004 28.8c0.884 0 1.6 0.716 1.6 1.6v0.533h-23.467v-0.533c0-0.884 0.716-1.6 1.6-1.6h20.267zM16.537 26.667v1.067h-5.333v-1.067h5.333zM11.204 25.6v-4.053c0-1.294 1.196-2.347 2.667-2.347s2.667 1.053 2.667 2.347v4.053h-5.333zM17.604 23.904v-2.357c0-1.882-1.675-3.413-3.733-3.413-1.331-0.020-2.576 0.657-3.281 1.786-4.058-4.274-4.971-10.645-2.279-15.887l18.602 18.708c-2.872 1.461-6.165 1.873-9.309 1.163zM28.893 23.22l-21.057-21.181 0.755-0.752 7.935 7.98c0.004 0 0.006 0.007 0.010 0.010l13.115 13.191-0.757 0.752z"></path>
<path fill="#4d5ae5" style="fill: var(--color3, #4d5ae5)" d="M13.876 20.267h-0.005c-0.884-0.001-1.601 0.714-1.602 1.598s0.714 1.601 1.598 1.602h0.005c0.884 0.001 1.601-0.714 1.602-1.598s-0.714-1.601-1.598-1.602zM14.249 22.245c-0.1 0.1-0.236 0.156-0.378 0.155-0.295-0.002-0.532-0.242-0.531-0.536 0.001-0.141 0.057-0.276 0.157-0.375s0.233-0.154 0.373-0.155c0.295 0.002 0.532 0.242 0.531 0.536-0.001 0.141-0.057 0.276-0.157 0.375h0.005z"></path>
</symbol>
<symbol id="astronaut" viewBox="0 0 32 32">
<path fill="#4d5ae5" style="fill: var(--color3, #4d5ae5)" d="M31.974 4.524c-0.063-0.193-0.229-0.333-0.43-0.363l-1.91-0.278-0.855-1.731c-0.179-0.365-0.777-0.365-0.956 0l-0.855 1.731-1.91 0.278c-0.201 0.029-0.367 0.17-0.431 0.363-0.062 0.193-0.011 0.405 0.135 0.547l1.383 1.348-0.326 1.903c-0.034 0.2 0.048 0.402 0.212 0.522 0.166 0.121 0.382 0.135 0.562 0.040l1.709-0.899 1.709 0.899c0.078 0.041 0.164 0.061 0.249 0.061 0.11 0 0.221-0.034 0.314-0.102 0.164-0.119 0.246-0.322 0.212-0.522l-0.326-1.903 1.383-1.348c0.145-0.142 0.197-0.354 0.135-0.547zM29.511 5.851c-0.125 0.122-0.183 0.299-0.153 0.472l0.191 1.114-1-0.526c-0.078-0.041-0.163-0.061-0.249-0.061s-0.17 0.020-0.249 0.061l-1.001 0.526 0.191-1.114c0.030-0.173-0.028-0.349-0.153-0.472l-0.81-0.789 1.119-0.163c0.174-0.025 0.324-0.134 0.402-0.292l0.5-1.013 0.5 1.013c0.078 0.157 0.228 0.267 0.402 0.292l1.119 0.163-0.809 0.789z"></path>
<path fill="#4d5ae5" style="fill: var(--color3, #4d5ae5)" d="M26.134 20.522h-1.067v1.067h1.067v-1.067z"></path>
<path fill="#4d5ae5" style="fill: var(--color3, #4d5ae5)" d="M26.134 22.656h-1.067v1.067h1.067v-1.067z"></path>
<path fill="#4d5ae5" style="fill: var(--color3, #4d5ae5)" d="M27.2 21.589h-1.067v1.067h1.067v-1.067z"></path>
<path fill="#4d5ae5" style="fill: var(--color3, #4d5ae5)" d="M25.067 21.589h-1.067v1.067h1.067v-1.067z"></path>
<path fill="#4d5ae5" style="fill: var(--color3, #4d5ae5)" d="M22.4 26.389h-1.067v1.067h1.067v-1.067z"></path>
<path fill="#4d5ae5" style="fill: var(--color3, #4d5ae5)" d="M22.4 28.522h-1.067v1.067h1.067v-1.067z"></path>
<path fill="#4d5ae5" style="fill: var(--color3, #4d5ae5)" d="M23.467 27.456h-1.067v1.067h1.067v-1.067z"></path>
<path fill="#4d5ae5" style="fill: var(--color3, #4d5ae5)" d="M21.333 27.456h-1.067v1.067h1.067v-1.067z"></path>
<path fill="#4d5ae5" style="fill: var(--color3, #4d5ae5)" d="M16 24.256h-1.067v1.067h1.067v-1.067z"></path>
<path fill="#4d5ae5" style="fill: var(--color3, #4d5ae5)" d="M16 26.389h-1.067v1.067h1.067v-1.067z"></path>
<path fill="#4d5ae5" style="fill: var(--color3, #4d5ae5)" d="M17.067 25.322h-1.067v1.067h1.067v-1.067z"></path>
<path fill="#4d5ae5" style="fill: var(--color3, #4d5ae5)" d="M14.933 25.322h-1.067v1.067h1.067v-1.067z"></path>
<path fill="#4d5ae5" style="fill: var(--color3, #4d5ae5)" d="M5.867 6.122h-1.067v1.067h1.067v-1.067z"></path>
<path fill="#4d5ae5" style="fill: var(--color3, #4d5ae5)" d="M5.867 8.255h-1.067v1.067h1.067v-1.067z"></path>
<path fill="#4d5ae5" style="fill: var(--color3, #4d5ae5)" d="M6.933 7.189h-1.067v1.067h1.067v-1.067z"></path>
<path fill="#4d5ae5" style="fill: var(--color3, #4d5ae5)" d="M4.8 7.189h-1.067v1.067h1.067v-1.067z"></path>
<path fill="#2e2f42" style="fill: var(--color2, #2e2f42)" d="M24.715 14.159c-0.287-0.388-0.709-0.637-1.188-0.705-0.481-0.068-0.956 0.058-1.34 0.352l-1.252 0.96-1.898 1.417-1.358-0.541c2.421-1.086 4.114-3.508 4.114-6.32 0-3.823-3.123-6.933-6.961-6.933s-6.961 3.11-6.961 6.933c0 1.386 0.414 2.674 1.12 3.758l-2.764-0.024c-0.002 0-0.003 0-0.005 0-0.009 0-0.015 0.004-0.023 0.005-0.053 0.002-0.105 0.013-0.155 0.031-0.013 0.005-0.026 0.008-0.038 0.013-0.006 0.003-0.013 0.003-0.019 0.006l-3.233 1.596c-0.001 0-0.001 0-0.001 0.001l-1.893 0.911c-0.021 0.009-0.042 0.021-0.063 0.035-0.755 0.502-1.012 1.489-0.598 2.295 0.22 0.429 0.595 0.745 1.056 0.889 0.178 0.055 0.359 0.083 0.539 0.083 0.29 0 0.577-0.071 0.839-0.211l1.388-0.738 2.264-1.169 1.357-0.008-5.442 5.416c-0.001 0.001-0.001 0.001-0.002 0.001l-1.339 1.333c-0.316 0.315-0.49 0.732-0.49 1.178s0.174 0.863 0.49 1.179c0.325 0.323 0.752 0.485 1.179 0.485s0.854-0.162 1.18-0.485l1.314-1.309 1.741-1.3 0.901 0.897-1.762 1.754c-0 0.001-0.001 0.001-0.002 0.001l-1.339 1.333c-0.316 0.315-0.49 0.732-0.49 1.178s0.174 0.863 0.49 1.179c0.325 0.323 0.753 0.485 1.18 0.485s0.855-0.162 1.18-0.485l3.482-3.467c0.001-0.001 0.001-0.001 0.001-0.002l1.010-1-0.004-0.004c0.006-0.006 0.015-0.009 0.022-0.015l5.166-5.658 3.471 0.494c0.025 0.004 0.050 0.005 0.075 0.005 0.065 0 0.127-0.015 0.187-0.038 0.018-0.006 0.033-0.015 0.050-0.023 0.019-0.010 0.039-0.015 0.058-0.027l3.213-2.133c0.012-0.008 0.018-0.021 0.029-0.029 0.013-0.010 0.029-0.014 0.041-0.026l1.271-1.191c0.662-0.62 0.753-1.635 0.212-2.362zM2.13 17.77c-0.173 0.093-0.37 0.111-0.558 0.052-0.187-0.058-0.338-0.186-0.427-0.358-0.161-0.314-0.068-0.695 0.214-0.902l1.314-0.632 0.449 1.313-0.992 0.527zM5.628 15.942l-1.548 0.8-0.439-1.283 2.027-1.001-0.040 1.484zM20.727 9.322c0 0.918-0.219 1.785-0.599 2.559l-4.181-1.899c-0.044-0.573-0.341-1.075-0.788-1.388l1.464-4.86c2.378 0.756 4.105 2.974 4.105 5.588zM8.938 9.322c0-3.235 2.644-5.867 5.894-5.867 0.253 0 0.5 0.021 0.745 0.052l-1.432 4.754c-0.019-0.001-0.037-0.006-0.057-0.006-1.033 0-1.873 0.837-1.873 1.867s0.84 1.867 1.873 1.867c0.694 0 1.294-0.383 1.618-0.945l3.862 1.755c-1.075 1.446-2.795 2.39-4.737 2.39-3.25 0-5.894-2.632-5.894-5.867zM14.894 10.122c0 0.441-0.362 0.8-0.806 0.8s-0.806-0.359-0.806-0.8c0-0.441 0.362-0.8 0.806-0.8s0.806 0.359 0.806 0.8zM2.465 25.146c-0.236 0.234-0.619 0.234-0.854 0.001-0.114-0.114-0.176-0.263-0.176-0.423s0.062-0.309 0.176-0.421l0.962-0.958 0.851 0.848-0.959 0.955zM5.679 28.88c-0.236 0.234-0.619 0.235-0.855 0.001-0.114-0.114-0.176-0.263-0.176-0.423s0.062-0.309 0.176-0.421l0.963-0.959 0.852 0.848-0.96 0.955zM9.16 25.411c-0.001 0-0.001 0-0.002 0.001l-1.765 1.76-0.852-0.848 1.763-1.755c0 0 0 0 0-0s0.001-0.001 0.002-0.001c0.040-0.040 0.065-0.088 0.090-0.135 0.007-0.014 0.020-0.026 0.026-0.040 0.017-0.041 0.019-0.085 0.026-0.129 0.003-0.025 0.014-0.047 0.014-0.073 0-0.036-0.013-0.070-0.020-0.106-0.006-0.032-0.006-0.065-0.019-0.095-0.020-0.050-0.055-0.094-0.091-0.138-0.010-0.012-0.014-0.027-0.025-0.038 0 0 0 0-0.001 0s-0.001-0.002-0.001-0.002l-1.607-1.6c-0.017-0.017-0.039-0.024-0.058-0.038-0.028-0.022-0.055-0.042-0.087-0.058-0.030-0.015-0.061-0.024-0.093-0.033-0.034-0.010-0.067-0.017-0.103-0.020-0.033-0.002-0.063 0.001-0.095 0.005-0.036 0.004-0.069 0.009-0.104 0.020-0.034 0.011-0.063 0.027-0.094 0.045-0.020 0.011-0.042 0.015-0.061 0.029l-1.773 1.324-0.901-0.897 2.399-2.386 4.361 4.289-0.928 0.919zM15.979 18.394c-0.015-0.002-0.030 0.004-0.045 0.003-0.039-0.002-0.076 0.001-0.115 0.007-0.030 0.005-0.059 0.011-0.088 0.021-0.034 0.012-0.065 0.028-0.097 0.047-0.030 0.018-0.057 0.037-0.083 0.061-0.013 0.011-0.028 0.017-0.040 0.029l-4.698 5.146-4.328-4.257 2.833-2.818c0.209-0.208 0.21-0.546 0.002-0.755-0.105-0.105-0.243-0.157-0.381-0.156v-0.001l-2.219 0.013 0.028-1.607 3.104 0.027c1.265 1.294 3.029 2.101 4.981 2.101 0.437 0 0.864-0.045 1.279-0.123 0.040 0.032 0.079 0.065 0.13 0.085l2.41 0.96 0.152 0.758 0.178 0.885-3.003-0.427zM20.020 18.572l-0.313-1.558 1.446-1.080 0.947 1.257-2.080 1.381zM23.774 15.741l-0.838 0.785-0.931-1.236 0.831-0.637c0.155-0.119 0.351-0.168 0.543-0.143 0.193 0.027 0.364 0.128 0.48 0.284 0.217 0.292 0.18 0.699-0.085 0.947z"></path>
<path fill="#2e2f42" style="fill: var(--color2, #2e2f42)" d="M13.602 18.544l-2.143-2.133c-0.207-0.207-0.545-0.207-0.753 0l-2.142 2.133c-0.1 0.101-0.157 0.236-0.157 0.378s0.056 0.278 0.157 0.378l2.142 2.133c0.104 0.103 0.241 0.155 0.377 0.155s0.273-0.052 0.376-0.155l2.143-2.133c0.1-0.1 0.157-0.236 0.157-0.378s-0.057-0.278-0.157-0.378zM11.083 20.303l-1.387-1.381 1.387-1.381 1.387 1.381-1.387 1.381z"></path>
<path fill="#2e2f42" style="fill: var(--color2, #2e2f42)" d="M17.164 5.071l-0.258 1.036c0.071 0.018 1.738 0.452 1.738 2.149h1.067c-0-2.017-1.666-2.965-2.547-3.185z"></path>
<path fill="#2e2f42" style="fill: var(--color2, #2e2f42)" d="M19.711 9.322h-1.067v1.067h1.067v-1.067z"></path>
</symbol>
<symbol id="clock" viewBox="0 0 32 32">
<path fill="#2e2f42" style="fill: var(--color2, #2e2f42)" d="M31.297 15.301c-0.002-8.452-6.855-15.303-15.308-15.301s-15.303 6.855-15.301 15.308c0.001 6.658 4.307 12.551 10.649 14.576 0.061 0.019 0.124 0.029 0.187 0.029 0.121-0 0.239-0.032 0.342-0.094 0.135-0.080 0.236-0.207 0.283-0.356l3.865-12.25c1.057-0.005 1.909-0.866 1.903-1.923s-0.866-1.909-1.923-1.903c-0.284 0.001-0.565 0.067-0.82 0.191l-5.106-5.107c-0.253-0.245-0.657-0.238-0.902 0.016-0.239 0.247-0.239 0.639 0 0.886l5.103 5.109c-0.392 0.799-0.168 1.764 0.536 2.309l-3.683 11.673c-7.278-2.681-11.004-10.754-8.323-18.032s10.754-11.004 18.032-8.323c7.278 2.681 11.004 10.754 8.323 18.032-1.31 3.556-4.001 6.431-7.462 7.973l-0.398-1.874c-0.073-0.345-0.411-0.565-0.756-0.492-0.109 0.023-0.209 0.074-0.293 0.148l-3.837 3.426c-0.263 0.234-0.287 0.637-0.052 0.9 0.076 0.085 0.174 0.149 0.283 0.184l4.899 1.564c0.335 0.108 0.694-0.077 0.802-0.412 0.034-0.106 0.040-0.219 0.017-0.328l-0.391-1.839c5.664-2.388 9.342-7.942 9.329-14.089zM15.992 14.664c0.352 0 0.638 0.286 0.638 0.638s-0.286 0.638-0.638 0.638c-0.352 0-0.638-0.285-0.638-0.638s0.285-0.638 0.638-0.638zM18.093 29.528l2.184-1.948 0.603 2.84-2.787-0.892z"></path>
<path fill="#4d5ae5" style="fill: var(--color3, #4d5ae5)" d="M15.354 3.185v1.275c0 0.352 0.285 0.638 0.638 0.638s0.638-0.285 0.638-0.638v-1.275c0-0.352-0.286-0.638-0.638-0.638s-0.638 0.286-0.638 0.638z"></path>
<path fill="#4d5ae5" style="fill: var(--color3, #4d5ae5)" d="M3.876 14.664c-0.352 0-0.638 0.286-0.638 0.638s0.285 0.638 0.638 0.638h1.275c0.352 0 0.638-0.285 0.638-0.638s-0.285-0.638-0.638-0.638h-1.275z"></path>
<path fill="#4d5ae5" style="fill: var(--color3, #4d5ae5)" d="M28.108 15.939c0.352 0 0.638-0.285 0.638-0.638s-0.285-0.638-0.638-0.638h-1.275c-0.352 0-0.638 0.286-0.638 0.638s0.286 0.638 0.638 0.638h1.275z"></path>
</symbol>
<symbol id="diagram" viewBox="0 0 32 32">
<path fill="#4d5ae5" style="fill: var(--color3, #4d5ae5)" d="M14.926 14.965h1.066v4.798h-1.066v-4.797z"></path>
<path fill="#4d5ae5" style="fill: var(--color3, #4d5ae5)" d="M19.19 17.097h1.066v2.665h-1.066v-2.665z"></path>
<path fill="#4d5ae5" style="fill: var(--color3, #4d5ae5)" d="M10.661 18.696h1.066v1.066h-1.066v-1.066z"></path>
<path fill="#4d5ae5" style="fill: var(--color3, #4d5ae5)" d="M7.463 18.163h1.066v1.599h-1.066v-1.599z"></path>
<path fill="#2e2f42" style="fill: var(--color2, #2e2f42)" d="M1.599 28.291h25.587c0.883 0 1.599-0.716 1.599-1.599v-2.132c0-0.883-0.716-1.599-1.599-1.599h-0.533v-13.293l3.028-2.868c0.703 0.346 1.553 0.136 2.013-0.499s0.396-1.508-0.152-2.068-1.42-0.644-2.065-0.198c-0.644 0.446-0.873 1.292-0.542 2.002l-2.281 2.163v-1.23c0-0.883-0.716-1.599-1.599-1.599h-21.322c-0.883 0-1.599 0.716-1.599 1.599v15.992h-0.533c-0.883 0-1.599 0.716-1.599 1.599v2.132c0 0.883 0.716 1.599 1.599 1.599zM30.384 4.837c0.294 0 0.533 0.239 0.533 0.533s-0.239 0.533-0.533 0.533c-0.294 0-0.533-0.239-0.533-0.533s0.239-0.533 0.533-0.533zM3.198 6.969c0-0.294 0.239-0.533 0.533-0.533h21.322c0.294 0 0.533 0.239 0.533 0.533v2.239l-1.066 1.013v-2.186c0-0.294-0.239-0.533-0.533-0.533h-19.19c-0.294 0-0.533 0.239-0.533 0.533v13.326c0 0.294 0.239 0.533 0.533 0.533h19.19c0.294 0 0.533-0.239 0.533-0.533v-9.674l1.066-1.010v12.284h-22.388v-15.992zM7.996 13.899c-0.721-0.002-1.354 0.478-1.546 1.174s0.105 1.433 0.725 1.801c0.62 0.368 1.41 0.276 1.928-0.226l1.853 0.93c0.215 0.108 0.476 0.057 0.636-0.123l3.939-4.431 3.872 2.901c0.208 0.156 0.498 0.139 0.686-0.039l3.365-3.188v8.131h-18.124v-12.26h18.124v2.66l-3.771 3.572-3.904-2.927c-0.222-0.166-0.534-0.135-0.718 0.072l-3.993 4.493-1.493-0.746c0.011-0.064 0.018-0.129 0.020-0.193 0-0.883-0.716-1.599-1.599-1.599zM8.529 15.498c0 0.294-0.239 0.533-0.533 0.533s-0.533-0.239-0.533-0.533c0-0.294 0.239-0.533 0.533-0.533s0.533 0.239 0.533 0.533zM11.727 24.027h5.331v0.533c0 0.294-0.239 0.533-0.533 0.533h-4.264c-0.294 0-0.533-0.239-0.533-0.533v-0.533zM1.066 24.56c0-0.294 0.239-0.533 0.533-0.533h9.062v0.533c0 0.883 0.716 1.599 1.599 1.599h4.264c0.883 0 1.599-0.716 1.599-1.599v-0.533h9.062c0.294 0 0.533 0.239 0.533 0.533v2.132c0 0.294-0.239 0.533-0.533 0.533h-25.587c-0.294 0-0.533-0.239-0.533-0.533v-2.132z"></path>
</symbol>
<symbol id="facebook" viewBox="0 0 32 32">
<path d="M19 6h5v-6h-5c-3.86 0-7 3.14-7 7v3h-4v6h4v16h6v-16h5l1-6h-6v-3c0-0.542 0.458-1 1-1z"></path>
</symbol>
<symbol id="instagram" viewBox="0 0 32 32">
<path d="M16 2.881c4.275 0 4.781 0.019 6.462 0.094 1.563 0.069 2.406 0.331 2.969 0.55 0.744 0.288 1.281 0.638 1.837 1.194 0.563 0.563 0.906 1.094 1.2 1.838 0.219 0.563 0.481 1.412 0.55 2.969 0.075 1.688 0.094 2.194 0.094 6.463s-0.019 4.781-0.094 6.463c-0.069 1.563-0.331 2.406-0.55 2.969-0.288 0.744-0.637 1.281-1.194 1.837-0.563 0.563-1.094 0.906-1.837 1.2-0.563 0.219-1.413 0.481-2.969 0.55-1.688 0.075-2.194 0.094-6.463 0.094s-4.781-0.019-6.463-0.094c-1.563-0.069-2.406-0.331-2.969-0.55-0.744-0.288-1.281-0.637-1.838-1.194-0.563-0.563-0.906-1.094-1.2-1.837-0.219-0.563-0.481-1.413-0.55-2.969-0.075-1.688-0.094-2.194-0.094-6.463s0.019-4.781 0.094-6.463c0.069-1.563 0.331-2.406 0.55-2.969 0.288-0.744 0.638-1.281 1.194-1.838 0.563-0.563 1.094-0.906 1.838-1.2 0.563-0.219 1.412-0.481 2.969-0.55 1.681-0.075 2.188-0.094 6.463-0.094zM16 0c-4.344 0-4.887 0.019-6.594 0.094-1.7 0.075-2.869 0.35-3.881 0.744-1.056 0.412-1.95 0.956-2.837 1.85-0.894 0.888-1.438 1.781-1.85 2.831-0.394 1.019-0.669 2.181-0.744 3.881-0.075 1.713-0.094 2.256-0.094 6.6s0.019 4.887 0.094 6.594c0.075 1.7 0.35 2.869 0.744 3.881 0.413 1.056 0.956 1.95 1.85 2.837 0.887 0.887 1.781 1.438 2.831 1.844 1.019 0.394 2.181 0.669 3.881 0.744 1.706 0.075 2.25 0.094 6.594 0.094s4.888-0.019 6.594-0.094c1.7-0.075 2.869-0.35 3.881-0.744 1.050-0.406 1.944-0.956 2.831-1.844s1.438-1.781 1.844-2.831c0.394-1.019 0.669-2.181 0.744-3.881 0.075-1.706 0.094-2.25 0.094-6.594s-0.019-4.887-0.094-6.594c-0.075-1.7-0.35-2.869-0.744-3.881-0.394-1.063-0.938-1.956-1.831-2.844-0.887-0.887-1.781-1.438-2.831-1.844-1.019-0.394-2.181-0.669-3.881-0.744-1.712-0.081-2.256-0.1-6.6-0.1v0z"></path>
<path d="M16 7.781c-4.537 0-8.219 3.681-8.219 8.219s3.681 8.219 8.219 8.219 8.219-3.681 8.219-8.219c0-4.537-3.681-8.219-8.219-8.219zM16 21.331c-2.944 0-5.331-2.387-5.331-5.331s2.387-5.331 5.331-5.331c2.944 0 5.331 2.387 5.331 5.331s-2.387 5.331-5.331 5.331z"></path>
<path d="M26.462 7.456c0 1.060-0.859 1.919-1.919 1.919s-1.919-0.859-1.919-1.919c0-1.060 0.859-1.919 1.919-1.919s1.919 0.859 1.919 1.919z"></path>
</symbol>
<symbol id="linkedin2" viewBox="0 0 32 32">
<path d="M12 12h5.535v2.837h0.079c0.77-1.381 2.655-2.837 5.464-2.837 5.842 0 6.922 3.637 6.922 8.367v9.633h-5.769v-8.54c0-2.037-0.042-4.657-3.001-4.657-3.005 0-3.463 2.218-3.463 4.509v8.688h-5.767v-18z"></path>
<path d="M2 12h6v18h-6v-18z"></path>
<path d="M8 7c0 1.657-1.343 3-3 3s-3-1.343-3-3c0-1.657 1.343-3 3-3s3 1.343 3 3z"></path>
</symbol>
<symbol id="twitter" viewBox="0 0 32 32">
<path d="M32 7.075c-1.175 0.525-2.444 0.875-3.769 1.031 1.356-0.813 2.394-2.1 2.887-3.631-1.269 0.75-2.675 1.3-4.169 1.594-1.2-1.275-2.906-2.069-4.794-2.069-3.625 0-6.563 2.938-6.563 6.563 0 0.512 0.056 1.012 0.169 1.494-5.456-0.275-10.294-2.888-13.531-6.862-0.563 0.969-0.887 2.1-0.887 3.3 0 2.275 1.156 4.287 2.919 5.463-1.075-0.031-2.087-0.331-2.975-0.819 0 0.025 0 0.056 0 0.081 0 3.181 2.263 5.838 5.269 6.437-0.55 0.15-1.131 0.231-1.731 0.231-0.425 0-0.831-0.044-1.237-0.119 0.838 2.606 3.263 4.506 6.131 4.563-2.25 1.762-5.075 2.813-8.156 2.813-0.531 0-1.050-0.031-1.569-0.094 2.913 1.869 6.362 2.95 10.069 2.95 12.075 0 18.681-10.006 18.681-18.681 0-0.287-0.006-0.569-0.019-0.85 1.281-0.919 2.394-2.075 3.275-3.394z"></path>
</symbol>
</defs>
</svg>
