<svg aria-hidden="true" style="position: absolute; width: 0; height: 0; overflow: hidden;" version="1.1" xmlns="http://www.w3.org/2000/svg" xmlns:xlink="http://www.w3.org/1999/xlink">
<defs>
<symbol id="facebook" viewBox="0 0 32 32">
<path d="M19 6h5v-6h-5c-3.86 0-7 3.14-7 7v3h-4v6h4v16h6v-16h5l1-6h-6v-3c0-0.542 0.458-1 1-1z"></path>
</symbol>
<symbol id="instagram" viewBox="0 0 32 32">
<path d="M16 2.881c4.275 0 4.781 0.019 6.462 0.094 1.563 0.069 2.406 0.331 2.969 0.55 0.744 0.288 1.281 0.638 1.837 1.194 0.563 0.563 0.906 1.094 1.2 1.838 0.219 0.563 0.481 1.412 0.55 2.969 0.075 1.688 0.094 2.194 0.094 6.463s-0.019 4.781-0.094 6.463c-0.069 1.563-0.331 2.406-0.55 2.969-0.288 0.744-0.637 1.281-1.194 1.837-0.563 0.563-1.094 0.906-1.837 1.2-0.563 0.219-1.413 0.481-2.969 0.55-1.688 0.075-2.194 0.094-6.463 0.094s-4.781-0.019-6.463-0.094c-1.563-0.069-2.406-0.331-2.969-0.55-0.744-0.288-1.281-0.637-1.838-1.194-0.563-0.563-0.906-1.094-1.2-1.837-0.219-0.563-0.481-1.413-0.55-2.969-0.075-1.688-0.094-2.194-0.094-6.463s0.019-4.781 0.094-6.463c0.069-1.563 0.331-2.406 0.55-2.969 0.288-0.744 0.638-1.281 1.194-1.838 0.563-0.563 1.094-0.906 1.838-1.2 0.563-0.219 1.412-0.481 2.969-0.55 1.681-0.075 2.188-0.094 6.463-0.094zM16 0c-4.344 0-4.887 0.019-6.594 0.094-1.7 0.075-2.869 0.35-3.881 0.744-1.056 0.412-1.95 0.956-2.837 1.85-0.894 0.888-1.438 1.781-1.85 2.831-0.394 1.019-0.669 2.181-0.744 3.881-0.075 1.713-0.094 2.256-0.094 6.6s0.019 4.887 0.094 6.594c0.075 1.7 0.35 2.869 0.744 3.881 0.413 1.056 0.956 1.95 1.85 2.837 0.887 0.887 1.781 1.438 2.831 1.844 1.019 0.394 2.181 0.669 3.881 0.744 1.706 0.075 2.25 0.094 6.594 0.094s4.888-0.019 6.594-0.094c1.7-0.075 2.869-0.35 3.881-0.744 1.050-0.406 1.944-0.956 2.831-1.844s1.438-1.781 1.844-2.831c0.394-1.019 0.669-2.181 0.744-3.881 0.075-1.706 0.094-2.25 0.094-6.594s-0.019-4.887-0.094-6.594c-0.075-1.7-0.35-2.869-0.744-3.881-0.394-1.063-0.938-1.956-1.831-2.844-0.887-0.887-1.781-1.438-2.831-1.844-1.019-0.394-2.181-0.669-3.881-0.744-1.712-0.081-2.256-0.1-6.6-0.1v0z"></path>
<path d="M16 7.781c-4.537 0-8.219 3.681-8.219 8.219s3.681 8.219 8.219 8.219 8.219-3.681 8.219-8.219c0-4.537-3.681-8.219-8.219-8.219zM16 21.331c-2.944 0-5.331-2.387-5.331-5.331s2.387-5.331 5.331-5.331c2.944 0 5.331 2.387 5.331 5.331s-2.387 5.331-5.331 5.331z"></path>
<path d="M26.462 7.456c0 1.060-0.859 1.919-1.919 1.919s-1.919-0.859-1.919-1.919c0-1.060 0.859-1.919 1.919-1.919s1.919 0.859 1.919 1.919z"></path>
</symbol>
<symbol id="twitter" viewBox="0 0 32 32">
<path d="M32 7.075c-1.175 0.525-2.444 0.875-3.769 1.031 1.356-0.813 2.394-2.1 2.887-3.631-1.269 0.75-2.675 1.3-4.169 1.594-1.2-1.275-2.906-2.069-4.794-2.069-3.625 0-6.563 2.938-6.563 6.563 0 0.512 0.056 1.012 0.169 1.494-5.456-0.275-10.294-2.888-13.531-6.862-0.563 0.969-0.887 2.1-0.887 3.3 0 2.275 1.156 4.287 2.919 5.463-1.075-0.031-2.087-0.331-2.975-0.819 0 0.025 0 0.056 0 0.081 0 3.181 2.263 5.838 5.269 6.437-0.55 0.15-1.131 0.231-1.731 0.231-0.425 0-0.831-0.044-1.237-0.119 0.838 2.606 3.263 4.506 6.131 4.563-2.25 1.762-5.075 2.813-8.156 2.813-0.531 0-1.050-0.031-1.569-0.094 2.913 1.869 6.362 2.95 10.069 2.95 12.075 0 18.681-10.006 18.681-18.681 0-0.287-0.006-0.569-0.019-0.85 1.281-0.919 2.394-2.075 3.275-3.394z"></path>
</symbol>
<symbol id="linkedin2" viewBox="0 0 32 32">
<path d="M12 12h5.535v2.837h0.079c0.77-1.381 2.655-2.837 5.464-2.837 5.842 0 6.922 3.637 6.922 8.367v9.633h-5.769v-8.54c0-2.037-0.042-4.657-3.001-4.657-3.005 0-3.463 2.218-3.463 4.509v8.688h-5.767v-18z"></path>
<path d="M2 12h6v18h-6v-18z"></path>
<path d="M8 7c0 1.657-1.343 3-3 3s-3-1.343-3-3c0-1.657 1.343-3 3-3s3 1.343 3 3z"></path>
</symbol>
<symbol id="antenna">
<path fill="#2E2F42" d="M61.546 44.195 44.66 27.185l1.874-9.23c.484.188.998.287 1.517.29h.013a4.318 4.318 0 1 0-4.017-2.87l-9.92 1.21L17.945.32a1.066 1.066 0 0 0-.753-.32c-.28.001-.548.113-.747.31L13.42 3.318a1.067 1.067 0 0 0 0 1.509l1.628 1.65a29.885 29.885 0 0 0 5.04 35.327c.084.081.183.147.291.195a6.192 6.192 0 0 0-.104 1.094v12.374h-12.8A5.34 5.34 0 0 0 2.14 60.8v2.133c0 .59.478 1.067 1.067 1.067h49.067c.589 0 1.067-.478 1.067-1.067V60.8a5.34 5.34 0 0 0-5.334-5.333h-12.8v-5.484c2.005.42 4.048.635 6.097.64a29.699 29.699 0 0 0 14.08-3.567l1.637 1.646c.198.202.469.318.753.32.28-.002.548-.113.746-.31l3.025-3.009a1.067 1.067 0 0 0 0-1.508ZM46.56 12.466a2.133 2.133 0 1 1 1.503 3.646h-.006a2.133 2.133 0 0 1-1.493-3.646h-.004Zm-2.511 7.01-1.197 5.89-2.351-2.364 3.548-3.527Zm-1.212-1.804-3.84 3.817-2.97-2.987 6.81-.83ZM48.008 57.6a3.2 3.2 0 0 1 3.2 3.2v1.067H4.275V60.8a3.2 3.2 0 0 1 3.2-3.2h40.533Zm-14.933-4.267v2.134H22.408v-2.134h10.667ZM22.408 51.2v-8.107c0-2.587 2.393-4.693 5.333-4.693 2.941 0 5.334 2.106 5.334 4.693V51.2H22.408Zm12.8-3.392v-4.715c0-3.764-3.35-6.826-7.466-6.826a7.6 7.6 0 0 0-6.563 3.572 27.739 27.739 0 0 1-4.557-31.774l37.204 37.417a27.642 27.642 0 0 1-18.618 2.326Zm22.578-1.367-1.503-1.512L17.181 5.591 15.672 4.08l1.51-1.504 15.87 15.96c.007 0 .011.013.019.019L59.3 44.937l-1.514 1.504Z"/>
<path fill="#4D5AE5" d="M27.751 40.533h-.01a3.2 3.2 0 0 0-.01 6.4h.01a3.2 3.2 0 0 0 .01-6.4Zm.747 3.957a1.067 1.067 0 0 1-1.818-.762 1.068 1.068 0 0 1 1.061-1.061 1.067 1.067 0 0 1 .747 1.823h.01Z"></path>
</symbol>
<symbol id="astronaut">
<path fill="#4D5AE5" d="M63.948 9.048a1.068 1.068 0 0 0-.86-.725l-3.822-.556-1.71-3.462c-.358-.73-1.553-.73-1.912 0l-1.71 3.462-3.82.556a1.067 1.067 0 0 0-.592 1.819l2.765 2.695-.653 3.806c-.068.4.096.804.424 1.043.332.241.765.271 1.124.081L56.6 15.97l3.417 1.797a1.068 1.068 0 0 0 1.548-1.124l-.652-3.806 2.766-2.695a1.07 1.07 0 0 0 .27-1.094Zm-4.926 2.654c-.25.244-.366.598-.306.944l.382 2.228-2.001-1.051a1.064 1.064 0 0 0-.994 0l-2.001 1.051.381-2.228a1.068 1.068 0 0 0-.306-.944l-1.62-1.579 2.238-.325c.348-.05.647-.269.803-.584l1-2.026L57.6 9.214c.156.315.456.534.804.584l2.237.325-1.618 1.579ZM52.267 41.044h-2.134v2.134h2.134v-2.134ZM52.267 45.311h-2.134v2.134h2.134V45.31Z"/>
<path fill="#4D5AE5" d="M54.4 43.178h-2.133v2.133H54.4v-2.133ZM50.134 43.178H48v2.133h2.134v-2.133ZM44.8 52.778h-2.133v2.133H44.8v-2.133ZM44.8 57.045h-2.133v2.133H44.8v-2.133ZM46.934 54.911H44.8v2.134h2.134V54.91Z"/><path fill="#4D5AE5" d="M42.667 54.911h-2.134v2.134h2.134V54.91ZM32 48.511h-2.133v2.134H32V48.51ZM32 52.778h-2.133v2.133H32v-2.133ZM34.133 50.645H32v2.133h2.133v-2.133ZM29.867 50.645h-2.134v2.133h2.134v-2.133ZM11.733 12.244H9.6v2.133h2.133v-2.133ZM11.733 16.51H9.6v2.134h2.133v-2.133ZM13.866 14.377h-2.133v2.134h2.133v-2.134ZM9.6 14.377H7.466v2.134H9.6v-2.134Z"/>
<path fill="#2E2F42" d="M49.43 28.319a3.548 3.548 0 0 0-2.377-1.41 3.553 3.553 0 0 0-2.68.705l-2.503 1.919h-.001l-3.796 2.835-2.715-1.082c4.842-2.172 8.227-7.016 8.227-12.64C43.585 11 37.34 4.78 29.663 4.78 21.986 4.78 15.74 11 15.74 18.646c0 2.771.828 5.348 2.24 7.517l-5.528-.048h-.01c-.017 0-.03.009-.047.01-.105.004-.209.025-.31.061-.026.01-.052.015-.077.027-.013.005-.025.006-.038.013l-6.466 3.193h-.002l-3.787 1.822a.82.82 0 0 0-.126.07A3.56 3.56 0 0 0 .393 35.9c.44.858 1.19 1.49 2.112 1.779a3.558 3.558 0 0 0 2.757-.257l2.776-1.476 4.528-2.339 2.714-.015-10.884 10.83c0 .002-.002.002-.003.003l-2.677 2.666a3.298 3.298 0 0 0-.98 2.356c0 .89.347 1.727.98 2.357.65.647 1.504.97 2.358.97.856 0 1.709-.323 2.36-.97l2.629-2.617 3.481-2.6 1.802 1.794-3.523 3.508-.003.003-2.678 2.666a3.298 3.298 0 0 0-.98 2.355c0 .89.348 1.727.98 2.358.65.646 1.505.97 2.36.97.854 0 1.71-.324 2.36-.97l2.679-2.667 4.285-4.266c0-.002 0-.003.002-.004l2.019-2-.008-.007c.013-.013.031-.017.044-.031L32.215 38.98l6.942.987a1.051 1.051 0 0 0 .525-.066c.035-.013.066-.03.1-.047.038-.019.078-.03.114-.054l6.427-4.267c.024-.016.036-.041.059-.059.025-.02.057-.028.08-.05l2.544-2.383a3.558 3.558 0 0 0 .423-4.723ZM4.26 35.54c-.346.186-.74.223-1.116.104a1.43 1.43 0 0 1-.425-2.52l2.628-1.264.632 1.849.266.776L4.26 35.54Zm6.995-3.655-3.097 1.6-.51-1.494-.367-1.073 4.053-2-.079 2.967Zm30.199-13.241c0 1.837-.438 3.57-1.198 5.119l-8.363-3.798a3.722 3.722 0 0 0-1.576-2.776l2.928-9.72C38 8.98 41.454 13.416 41.454 18.643Zm-23.578 0c0-6.47 5.289-11.734 11.789-11.734.506 0 1 .043 1.49.105l-2.864 9.507c-.038 0-.075-.011-.114-.011a3.744 3.744 0 0 0-3.745 3.733 3.744 3.744 0 0 0 3.745 3.733c1.389 0 2.589-.766 3.236-1.889l7.725 3.51c-2.15 2.893-5.59 4.78-9.473 4.78-6.5 0-11.789-5.265-11.789-11.734Zm11.913 1.6c0 .882-.724 1.6-1.612 1.6a1.608 1.608 0 0 1-1.612-1.6c0-.882.723-1.6 1.612-1.6.888 0 1.612.718 1.612 1.6ZM4.929 50.292a1.217 1.217 0 0 1-1.708.002 1.187 1.187 0 0 1 0-1.689l1.924-1.917 1.702 1.695-1.917 1.91Zm6.428 7.467a1.216 1.216 0 0 1-1.71.002 1.188 1.188 0 0 1 0-1.689l1.926-1.918.805.801.898.894-1.919 1.91Zm6.964-6.937-.004.002-3.53 3.52-.805-.801-.898-.894 3.527-3.51v-.002s.002 0 .003-.002c.08-.08.13-.176.18-.27.013-.028.04-.052.052-.08.033-.083.038-.171.05-.258.007-.049.028-.095.028-.145 0-.071-.025-.14-.04-.211-.013-.064-.013-.13-.037-.191-.04-.1-.11-.189-.183-.275-.02-.024-.027-.054-.05-.076h-.001l-.002-.004-3.214-3.2c-.034-.034-.078-.048-.116-.077a1.026 1.026 0 0 0-.174-.115.99.99 0 0 0-.187-.065 1.024 1.024 0 0 0-.206-.04 1.035 1.035 0 0 0-.19.01 1.068 1.068 0 0 0-.209.04.987.987 0 0 0-.188.09c-.04.022-.085.03-.122.057l-3.547 2.648-1.801-1.794 4.798-4.773 8.72 8.578-1.854 1.838Zm13.637-14.034c-.03-.004-.06.008-.09.006a1.044 1.044 0 0 0-.23.014.983.983 0 0 0-.37.136c-.06.036-.114.075-.166.123-.026.022-.057.033-.08.058l-9.397 10.292-8.656-8.514 5.666-5.636a1.068 1.068 0 0 0-.759-1.822l-4.437.026.055-3.215 6.208.053a13.897 13.897 0 0 0 9.963 4.202c.875 0 1.728-.09 2.559-.245.08.064.159.129.26.17l4.818 1.92.305 1.516.357 1.77-6.006-.854Zm8.083.357-.627-3.116 2.893-2.16.758 1.005 1.136 1.508-4.16 2.763Zm7.507-5.662-1.676 1.57-1.862-2.473 1.663-1.274c.31-.24.701-.336 1.085-.286.387.054.728.256.96.568.434.584.36 1.398-.17 1.895Z"/>
<path fill="#2E2F42" d="m27.204 37.088-4.286-4.267a1.066 1.066 0 0 0-1.505 0l-4.285 4.267a1.072 1.072 0 0 0 0 1.513l4.285 4.266a1.066 1.066 0 0 0 1.505 0l4.286-4.266a1.067 1.067 0 0 0 0-1.513Zm-5.038 3.518-2.773-2.762 2.773-2.761 2.775 2.761-2.775 2.762ZM34.328 10.142l-.515 2.071c.142.035 3.475.904 3.475 4.298h2.134c0-4.034-3.331-5.931-5.093-6.37ZM39.422 18.644h-2.133v2.134h2.133v-2.134Z"/>
</symbol>
<symbol id="clock">
<path fill="#2E2F42" d="M62.593 30.602C62.59 13.698 48.883-.003 31.977 0 15.073.003 1.372 13.71 1.375 30.616a30.61 30.61 0 0 0 21.299 29.152c.12.038.247.058.373.057.242 0 .478-.065.685-.187.27-.16.472-.414.567-.713l7.73-24.5a3.826 3.826 0 1 0-1.68-7.27L20.137 16.942a1.275 1.275 0 0 0-1.803 1.804l10.207 10.218a3.752 3.752 0 0 0 1.072 4.618l-7.365 23.346C7.692 51.566.239 35.42 5.601 20.864 10.963 6.31 27.11-1.145 41.665 4.217 56.22 9.58 63.673 25.726 58.312 40.281a28.087 28.087 0 0 1-14.925 15.947l-.796-3.749a1.275 1.275 0 0 0-2.096-.687l-7.674 6.851a1.275 1.275 0 0 0 .462 2.169l9.797 3.127a1.275 1.275 0 0 0 1.638-1.48l-.782-3.678a30.51 30.51 0 0 0 18.657-28.178Zm-30.609-1.275a1.276 1.276 0 1 1 0 2.552 1.276 1.276 0 0 1 0-2.552Zm4.201 29.728 4.368-3.896 1.206 5.68-5.574-1.784Z"/>
<path fill="#4D5AE5" d="M30.709 6.37v2.55a1.275 1.275 0 1 0 2.55 0V6.37a1.276 1.276 0 0 0-2.55 0ZM7.752 29.327a1.275 1.275 0 0 0 0 2.55h2.55a1.275 1.275 0 1 0 0-2.55h-2.55ZM56.216 31.878a1.275 1.275 0 1 0 0-2.55h-2.55a1.276 1.276 0 0 0 0 2.55h2.55Z"/>
</symbol>
<symbol id="diagram">
<path fill="#4D5AE5" d="M29.851 29.93h2.132v9.594h-2.132V29.93ZM38.38 34.194h2.132v5.33H38.38v-5.33ZM21.322 37.392h2.132v2.132h-2.132v-2.132ZM14.925 36.326h2.133v3.198h-2.133v-3.198Z"/>
<path fill="#2E2F42" d="M3.198 56.582h51.173a3.198 3.198 0 0 0 3.199-3.198v-4.265a3.198 3.198 0 0 0-3.199-3.198h-1.066V19.334l6.056-5.736a3.216 3.216 0 1 0-1.493-1.526l-4.563 4.325v-2.46a3.198 3.198 0 0 0-3.198-3.198H7.463a3.198 3.198 0 0 0-3.199 3.199V45.92H3.198A3.198 3.198 0 0 0 0 49.119v4.265a3.198 3.198 0 0 0 3.198 3.198Zm57.57-46.909a1.066 1.066 0 1 1 0 2.133 1.066 1.066 0 0 1 0-2.133ZM6.397 13.938c0-.59.477-1.067 1.066-1.067h42.644c.589 0 1.066.478 1.066 1.067v4.477l-2.132 2.026V16.07c0-.589-.477-1.066-1.066-1.066H9.595c-.589 0-1.066.477-1.066 1.066v26.652c0 .59.477 1.067 1.066 1.067h38.38c.589 0 1.066-.478 1.066-1.067V23.374l2.132-2.02V45.92H6.397V13.938Zm9.595 13.859a3.198 3.198 0 1 0 2.214 5.497l3.706 1.86c.43.215.953.114 1.273-.246l7.877-8.863 7.744 5.803c.416.311.996.278 1.372-.079l6.73-6.375v16.262H10.662v-24.52H46.91v5.32L39.366 29.6l-7.81-5.855a1.067 1.067 0 0 0-1.435.145l-7.986 8.985-2.986-1.493c.022-.128.036-.257.041-.387a3.199 3.199 0 0 0-3.198-3.198Zm1.066 3.198a1.066 1.066 0 1 1-2.133 0 1.066 1.066 0 0 1 2.133 0Zm6.396 17.058h10.661v1.066c0 .589-.477 1.066-1.066 1.066H24.52a1.066 1.066 0 0 1-1.066-1.066v-1.066ZM2.132 49.12c0-.589.478-1.066 1.066-1.066h18.124v1.066a3.198 3.198 0 0 0 3.198 3.199h8.53a3.198 3.198 0 0 0 3.198-3.199v-1.066H54.37c.59 0 1.067.477 1.067 1.066v4.265c0 .588-.478 1.066-1.067 1.066H3.198a1.066 1.066 0 0 1-1.066-1.066v-4.265Z"/>
</symbol>
<symbol id="group-one" >
<path d="m6 0 7 6.68-13-.01v32.4h34v-12.4l7 6.67V0H6Zm27.7 25.9L13.81 6.95H33.7V25.9Zm-6.18 8.42H5.38V12.54h1.57v20.3h20.57v1.48ZM9.8 45.06l-.83-1.7H8.3l1.2 2.25v1.3h.61v-1.3l1.2-2.25h-.68l-.82 1.7Zm3.04-1.7h.14l1.35 3.56h-.65l-.29-.83h-1.37l-.29.83h-.64l1.34-3.56H12.84Zm-.65 2.24h1.04l-.52-1.5-.52 1.5Zm4.3-.59a1.82 1.82 0 0 1-.29-.45.95.95 0 0 1 .04-.83.77.77 0 0 1 .32-.3c.14-.08.3-.11.49-.11.18 0 .33.03.46.1a.77.77 0 0 1 .35.99.9.9 0 0 1-.17.25c-.07.08-.15.15-.25.22l-.24.18.7.83a1.4 1.4 0 0 0 .16-.66h.5c0 .17-.01.33-.05.49a1.52 1.52 0 0 1-.26.58l.52.62h-.68l-.2-.24c-.12.08-.24.15-.37.2a1.62 1.62 0 0 1-1.16-.04.97.97 0 0 1-.4-.36.97.97 0 0 1-.05-.9c.06-.1.14-.21.24-.3.1-.1.2-.18.33-.27Zm.28.36-.07.05a.91.91 0 0 0-.2.2.6.6 0 0 0-.03.6c.05.09.11.16.2.2.09.06.2.08.32.08a.9.9 0 0 0 .57-.2l-.79-.93Zm.14-.65.22-.15a.8.8 0 0 0 .22-.2.44.44 0 0 0 .07-.25.35.35 0 0 0-.37-.34.36.36 0 0 0-.34.21.5.5 0 0 0 .01.44l.15.24.04.05Zm6.22 1.04h-.6a1.1 1.1 0 0 1-.12.4.55.55 0 0 1-.25.24.92.92 0 0 1-.42.08.75.75 0 0 1-.37-.09.7.7 0 0 1-.25-.24 1.2 1.2 0 0 1-.15-.37c-.03-.15-.04-.31-.04-.49V45c0-.19.01-.36.05-.5.03-.15.09-.28.16-.38.07-.1.15-.17.26-.23a.8.8 0 0 1 .36-.07c.17 0 .31.03.42.08.1.06.18.14.24.25.05.11.09.24.1.4h.62c-.03-.24-.1-.45-.2-.64-.11-.18-.26-.32-.46-.43a1.5 1.5 0 0 0-.72-.15c-.22 0-.42.03-.6.11s-.33.2-.46.34c-.12.15-.22.33-.29.53-.07.2-.1.44-.1.7v.3c0 .25.03.48.1.68.07.21.16.39.29.53a1.3 1.3 0 0 0 1.04.46c.29 0 .53-.05.73-.16.2-.1.36-.25.47-.43.1-.18.17-.39.2-.62Zm3.4-.52v-.2c0-.26-.04-.5-.11-.72-.07-.2-.17-.4-.3-.54a1.28 1.28 0 0 0-.47-.34 1.47 1.47 0 0 0-.6-.12c-.22 0-.42.04-.6.12-.18.07-.33.19-.46.34-.13.15-.24.33-.3.54-.08.22-.11.46-.11.72v.2c0 .27.03.5.1.72.08.22.18.4.31.55a1.34 1.34 0 0 0 1.06.46c.22 0 .42-.04.6-.12.19-.08.34-.2.47-.34.13-.15.23-.33.3-.55.07-.21.1-.45.1-.72Zm-.62-.2v.2c0 .2-.02.37-.06.53-.03.15-.09.28-.16.38a.73.73 0 0 1-.27.24.81.81 0 0 1-.37.08.8.8 0 0 1-.36-.08.77.77 0 0 1-.27-.24c-.07-.1-.13-.23-.17-.38a2.14 2.14 0 0 1-.06-.53v-.2c0-.2.02-.37.06-.53.04-.15.1-.28.17-.38.07-.1.16-.18.27-.23.1-.06.22-.08.36-.08a.8.8 0 0 1 .36.08c.11.05.2.13.27.23.08.1.14.23.17.38.04.16.06.33.06.53Z"/>
</symbol>
<symbol id="group-two" >
<path d="M17.11 2.93h-.13l-.63-.02h-.46a23.94 23.94 0 0 0-1.3.03c-3.64.2-7.2 1.12-10.51 2.68l-.43.21v22.14l1.01-.34a34.33 34.33 0 0 1 10.9-1.91v2.91l-1.06.03h-.08A32.36 32.36 0 0 0 .77 32.51V4.1A29.73 29.73 0 0 1 8.56.95 29.8 29.8 0 0 1 15.89 0h.43a21.1 21.1 0 0 1 5.13.65v2.87a22.62 22.62 0 0 0-3.54-.54h-.07c-.25-.02-.5-.05-.73-.05Zm5.04 2.93a31.47 31.47 0 0 0 9.67-.92 31.78 31.78 0 0 0 7.42-2.89v27.89a29.81 29.81 0 0 1-7.79 3.17c-2.4.61-4.86.93-7.33.94a22.4 22.4 0 0 1-5.57-.66V5.32a22.96 22.96 0 0 0 3.6.54Zm14.2.22-1.01.34a34.26 34.26 0 0 1-13.07 1.86l-.82-.05V31l.7.06a26.88 26.88 0 0 0 8.6-.77 27.76 27.76 0 0 0 5.16-1.87l.44-.2V6.08Z"/>
<path d="M2.74 42.21a1.5 1.5 0 0 0-1.13-.45c-.22 0-.44.04-.65.12a1.5 1.5 0 0 0-.95 1.47v3.8c0 .26.04.53.15.77.1.2.22.37.38.51.15.13.33.22.52.27.19.05.38.08.57.08a1.6 1.6 0 0 0 1.57-1.6v-.42h-1v.33c.01.12 0 .24-.05.34a.6.6 0 0 1-.14.22.7.7 0 0 1-.41.14.5.5 0 0 1-.47-.2.9.9 0 0 1-.14-.51v-3.54c0-.2.04-.39.13-.56a.5.5 0 0 1 .48-.23.53.53 0 0 1 .44.21.8.8 0 0 1 .17.5v.34h.98v-.39a1.79 1.79 0 0 0-.45-1.2ZM8.63 42.17a1.77 1.77 0 0 0-1.72-.31c-.2.07-.37.17-.52.3-.17.16-.3.34-.39.54-.1.23-.15.48-.14.74v3.63c-.01.26.04.51.14.75.09.2.22.37.39.5.15.15.32.26.52.33a1.74 1.74 0 0 0 1.18 0 1.55 1.55 0 0 0 1.05-1.57v-3.64a1.64 1.64 0 0 0-.52-1.27Zm-.46 4.9a.65.65 0 0 1-.2.53.73.73 0 0 1-.93 0 .65.65 0 0 1-.2-.53v-3.63a.65.65 0 0 1 .2-.53.73.73 0 0 1 .93 0 .65.65 0 0 1 .2.53v3.63ZM16.37 48.7V41.8h-.96l-1.25 3.65h-.02l-1.26-3.65h-.94v6.89h.98v-4.2h.02l.96 2.97h.5l.97-2.96h.01v4.19h.99ZM21.96 42.3c-.15-.18-.34-.3-.56-.38a2.18 2.18 0 0 0-.71-.11h-1.46v6.89h.98V46h.5c.31.02.61-.04.89-.18a1.65 1.65 0 0 0 .76-1.13 4.9 4.9 0 0 0-.04-1.76 1.47 1.47 0 0 0-.36-.64Zm-.5 2.1c-.01.12-.04.24-.1.35-.06.1-.14.2-.25.24a1 1 0 0 1-.46.1h-.45v-2.35h.5c.16 0 .3.02.45.09.1.05.18.14.23.25a1 1 0 0 1 .08.38V44.4ZM26.6 41.81h-.8L24.3 48.7h.98l.29-1.48h1.33l.3 1.48h.97l-1.55-6.89Zm-.9 4.47.49-2.5h.01l.48 2.5h-.98ZM32.95 45.96h-.02l-1.48-4.15h-.94v6.89h.98v-4.14h.02L33 48.7h.92V41.8h-.98v4.15ZM38.95 41.81l-.8 2.74h-.01l-.8-2.74h-1.03l1.35 3.98v2.9h.98v-2.9l1.35-3.98h-1.04ZM0 50.64h.47v1.33H.8v-1.33h.47v-.27H0v.27ZM3.98 50.37l-.62 1.6h.34l.13-.36h.64l.13.36h.35l-.63-1.6h-.34Zm-.05.97.21-.6.22.6h-.43ZM7.9 51.38h.38v.2a.61.61 0 0 1-.38.14.4.4 0 0 1-.34-.15.67.67 0 0 1-.12-.42c0-.35.15-.53.46-.53a.34.34 0 0 1 .36.25l.32-.06c-.07-.31-.3-.47-.68-.47a.8.8 0 0 0-.56.2.78.78 0 0 0-.23.62c0 .22.06.44.2.6a.78.78 0 0 0 .61.24c.25 0 .5-.09.68-.26v-.63h-.7v.27ZM11.92 50.37h-.32v1.6h1.12v-.27h-.8v-1.33ZM15.32 50.37h-.33v1.6h.33v-1.6ZM18.64 51.44l-.66-1.07h-.31v1.6h.3v-1.04l.64 1.04h.32v-1.6h-.3v1.07ZM21.64 51.27h.8V51h-.8v-.36h.85v-.27h-1.18v1.6h1.22v-.27h-.9v-.43ZM28.91 51h-.63v-.63h-.32v1.6h.32v-.7h.63v.7h.32v-1.6h-.32V51ZM31.93 51.27h.8V51h-.8v-.36h.86v-.27h-1.18v1.6h1.21v-.27h-.89v-.43ZM36.02 51.27c.28-.05.42-.2.42-.45a.38.38 0 0 0-.15-.35.9.9 0 0 0-.47-.1h-.68v1.6h.32v-.67h.06c.07 0 .14.01.2.04.05.03.1.07.12.12l.35.5h.38l-.2-.3c-.08-.16-.2-.3-.35-.4Zm-.32-.22h-.24v-.4h.25c.11-.01.23 0 .33.03a.2.2 0 0 1-.01.33.91.91 0 0 1-.33.04ZM39.11 51.27h.8V51h-.8v-.36h.86v-.27h-1.18v1.6H40v-.27h-.89v-.43Z"/>
</symbol>
<symbol id="group-three">
<path d="m6.81 40.22.05.01.04.03.22.2c-.18.17-.39.3-.62.4-.28.1-.58.15-.89.14-.28 0-.56-.04-.82-.13a1.67 1.67 0 0 1-1.03-.95 1.89 1.89 0 0 1 .01-1.48c.1-.21.24-.41.43-.58a2 2 0 0 1 .66-.37 2.64 2.64 0 0 1 1.65-.01c.21.08.42.2.59.33l-.19.22a.18.18 0 0 1-.04.04.13.13 0 0 1-.08.02.18.18 0 0 1-.08-.03l-.1-.05-.13-.08a1.6 1.6 0 0 0-.77-.16c-.2 0-.42.04-.61.1a1.28 1.28 0 0 0-.8.72c-.07.2-.11.4-.1.6a1.3 1.3 0 0 0 .88 1.3c.17.06.36.1.56.1l.34-.02a1.35 1.35 0 0 0 .72-.3.17.17 0 0 1 .11-.05ZM13.19 39.18c0 .25-.05.5-.15.73-.1.22-.23.41-.42.57-.18.17-.4.3-.65.38-.54.17-1.14.17-1.68 0a1.94 1.94 0 0 1-.65-.38 1.67 1.67 0 0 1-.42-.57c-.2-.48-.2-1 0-1.47.1-.22.24-.41.42-.58.19-.16.4-.28.65-.36a2.69 2.69 0 0 1 1.68 0c.24.08.47.21.65.37a1.69 1.69 0 0 1 .57 1.31Zm-.58 0c0-.2-.03-.4-.1-.59a1.21 1.21 0 0 0-.77-.72c-.4-.13-.83-.13-1.22 0-.18.06-.34.16-.47.28-.13.13-.23.28-.3.44-.14.38-.14.8 0 1.18a1.2 1.2 0 0 0 .77.72c.4.12.83.12 1.22 0a1.23 1.23 0 0 0 .76-.72c.08-.19.11-.39.1-.59ZM17.54 39.8l.05.13.07-.13.07-.13 1.41-2.2.08-.06a.39.39 0 0 1 .12-.01h.41v3.56h-.5v-2.85l-1.41 2.22a.2.2 0 0 1-.08.08.25.25 0 0 1-.12.03h-.08a.25.25 0 0 1-.13-.03.2.2 0 0 1-.08-.08l-1.46-2.24V40.95h-.48V37.4h.42l.12.01c.03.01.06.04.07.07l1.44 2.2c.03.03.06.07.08.12ZM22.84 39.62v1.34h-.55V37.4h1.23c.24 0 .47.02.7.08.17.04.34.11.48.22.12.1.21.21.27.35.07.14.1.3.1.45a1 1 0 0 1-.4.81c-.15.11-.31.19-.5.24-.2.06-.43.09-.66.08h-.67Zm0-.38h.67c.15 0 .3-.02.43-.05a.94.94 0 0 0 .31-.16.67.67 0 0 0 .25-.54.6.6 0 0 0-.05-.28.69.69 0 0 0-.2-.25 1.2 1.2 0 0 0-.74-.19h-.67v1.47ZM30.26 40.96h-.43a.21.21 0 0 1-.12-.03.22.22 0 0 1-.07-.08l-.38-.87h-1.89l-.38.87a.2.2 0 0 1-.07.08.21.21 0 0 1-.13.03h-.43L28 37.4h.58l1.67 3.56Zm-2.73-1.32h1.56l-.66-1.45c-.05-.11-.09-.22-.12-.34l-.07.19-.06.15-.65 1.45ZM32.65 37.41l.08.07 2.42 2.68V37.4h.5v3.56h-.28c-.04 0-.08 0-.12-.02a.3.3 0 0 1-.09-.07l-2.4-2.68v2.77h-.5V37.4h.29l.1.01ZM39.71 39.54v1.42h-.55v-1.42l-1.53-2.14h.5a.2.2 0 0 1 .11.03l.08.08.95 1.38a2.14 2.14 0 0 1 .17.32l.07-.15.1-.17.94-1.4a.38.38 0 0 1 .07-.07.19.19 0 0 1 .12-.03h.5l-1.53 2.15ZM17.26 31.42l.73.06a20.16 20.16 0 0 0 9.06-6.7 15.86 15.86 0 0 0 3.22-9.86l-4.1-3.5a17.6 17.6 0 0 1-1.13 11.08 20.97 20.97 0 0 1-7.78 8.92Z"/>
<path d="m15.8 31.25.1.02c3.76-2.29 6.62-5.49 8.22-9.18 1.6-3.7 1.86-7.72.75-11.54l-5.84-5c2.36 4.1 3.31 8.7 2.74 13.25a22.42 22.42 0 0 1-5.97 12.45ZM35.63 19.04c-1 3.83-3.41 7.29-6.88 9.85-1.02.75-2.11 1.43-3.27 2a20.31 20.31 0 0 0 7.6-3.66A16.62 16.62 0 0 0 38 21.07l-2.37-2.03Z"/>
<path d="m34.7 18.48-3.38-2.89a16.5 16.5 0 0 1-3.17 9.31 20.56 20.56 0 0 1-8.26 6.64h.01c.76 0 1.52-.03 2.27-.11a20.91 20.91 0 0 0 8.17-5.13 16.8 16.8 0 0 0 4.35-7.82ZM16.29 3.45 12.26 0a18.99 18.99 0 0 0-8.89 6A14.78 14.78 0 0 0 0 15.23a14.94 14.94 0 0 0 4.08 10.05c2.63 2.87 6.3 4.9 10.44 5.79 3.7-3.85 5.86-8.6 6.18-13.57.31-4.96-1.23-9.89-4.41-14.05ZM44 17.95c-.01-4.33-2.03-8.47-5.6-11.53a20.92 20.92 0 0 0-13.5-4.79c-2.33 0-4.65.37-6.83 1.09l24.65 21.07A14.09 14.09 0 0 0 44 17.95Z"/>
</symbol>
<symbol id="group-five" >
<path d="M47.53 21.44a2.95 2.95 0 0 1-.6-1.99v-2.89c0-.88.2-1.55.6-2.02.4-.46 1.09-.68 2.07-.68.92 0 1.57.2 1.95.58.42.5.63 1.12.58 1.73v.68H50.5v-.69c0-.22-.01-.45-.05-.67a.65.65 0 0 0-.23-.4.95.95 0 0 0-.6-.15 1 1 0 0 0-.63.16.77.77 0 0 0-.27.44c-.05.24-.07.48-.06.71v3.51c-.03.34.04.68.2.98.09.1.2.2.34.24a.9.9 0 0 0 .42.06.9.9 0 0 0 .58-.16.7.7 0 0 0 .25-.43c.04-.23.05-.46.05-.7v-.71h1.64v.65c.05.64-.15 1.28-.57 1.81-.37.43-1.02.65-1.96.65-.95 0-1.67-.23-2.07-.7ZM54.38 21.47c-.42-.45-.63-1.1-.63-1.97v-3.04c0-.85.21-1.5.63-1.94.41-.45 1.1-.66 2.08-.66.97 0 1.66.22 2.07.66.42.44.63 1.09.63 1.94v3.04c0 .86-.21 1.52-.63 1.97-.43.45-1.11.68-2.07.68-.96 0-1.66-.23-2.08-.68Zm2.85-.73c.14-.28.21-.59.2-.9v-3.71c.01-.3-.05-.61-.2-.89a.78.78 0 0 0-.34-.24.9.9 0 0 0-.43-.05.92.92 0 0 0-.43.05.79.79 0 0 0-.34.24c-.15.28-.22.58-.2.89v3.73c-.02.31.05.62.2.9.1.1.21.17.34.22a1.16 1.16 0 0 0 .85 0c.13-.05.25-.12.35-.22v-.02ZM61.14 13.95h1.77l1.33 5.6 1.36-5.6h1.72l.18 8.09h-1.28l-.13-5.63-1.32 5.63h-1.02l-1.36-5.65-.13 5.65h-1.28l.16-8.1ZM69.48 13.95h2.76c1.59 0 2.38.76 2.38 2.3 0 1.46-.83 2.2-2.5 2.2h-.95v3.59h-1.7l.01-8.1Zm2.36 3.45c.17.02.34 0 .5-.04.16-.04.31-.11.44-.21.19-.28.28-.6.24-.92 0-.24-.02-.49-.08-.73a.6.6 0 0 0-.13-.22.7.7 0 0 0-.21-.16c-.24-.1-.5-.15-.76-.13h-.66v2.41h.66ZM77.08 13.95h1.83l1.87 8.09H79.2l-.37-1.87h-1.64l-.38 1.87h-1.6l1.87-8.1Zm1.56 5.28-.64-3.4-.63 3.4h1.27ZM82.3 13.95h1.19l2.28 4.61v-4.61h1.41v8.09h-1.13l-2.3-4.82v4.82H82.3v-8.1ZM90.5 18.95l-1.9-5h1.6l1.15 3.22 1.09-3.21H94l-1.87 5v3.08h-1.64v-3.09ZM50.16 25.57V26h-1.4v3.28h-.57V26h-1.4v-.43h3.37ZM54.51 29.28h-.45a.2.2 0 0 1-.12-.03.2.2 0 0 1-.08-.09l-.4-.88h-1.93l-.4.88a.24.24 0 0 1-.06.1.2.2 0 0 1-.13.04h-.45l1.7-3.71h.6l1.72 3.7Zm-2.82-1.37h1.61l-.68-1.51a2.7 2.7 0 0 1-.13-.35l-.06.2-.06.15-.68 1.5ZM57.45 28.92h.32a1.93 1.93 0 0 0 .51-.11l.23-.1v-.83H57.78a.13.13 0 0 1-.04-.03.09.09 0 0 1-.03-.03V27.5h1.32v1.42a2.57 2.57 0 0 1-1.15.38c-.16.02-.33.03-.5.03-.29 0-.58-.05-.85-.14a2.1 2.1 0 0 1-.68-.39 1.8 1.8 0 0 1-.44-.59c-.1-.24-.16-.5-.16-.77a1.7 1.7 0 0 1 .6-1.36c.19-.17.42-.3.67-.39a2.86 2.86 0 0 1 1.39-.1 2.33 2.33 0 0 1 .75.24c.1.06.2.12.3.2l-.17.22a.14.14 0 0 1-.06.05.17.17 0 0 1-.07.02.22.22 0 0 1-.11-.03 2.1 2.1 0 0 1-.17-.08 2.14 2.14 0 0 0-.97-.21c-.22-.01-.45.02-.66.1a1.3 1.3 0 0 0-.82.76c-.15.4-.15.82 0 1.23.08.17.2.33.35.46a1.45 1.45 0 0 0 1.17.37ZM62.87 28.86h1.86v.42h-2.42v-3.7h.58l-.02 3.28ZM66.67 29.28h-.59v-3.7h.59v3.7ZM68.83 25.6c.04 0 .07.03.1.06l2.48 2.8V25.56h.5v3.72h-.29c-.04 0-.08 0-.12-.02a.33.33 0 0 1-.1-.07l-2.48-2.8v2.89h-.49v-3.7h.3l.1.01ZM76.2 25.57v.41h-2.06v1.23h1.67v.4h-1.67v1.26h2.06v.4h-2.66v-3.7h2.66ZM15.2 2.66l25.85 6.33v22.2L15.2 24.86V2.66ZM13.54.76v25.18l29.16 7.14V7.92L13.54.77Z"/>
<path d="M29.17 44.77 0 37.6V12.45l29.17 7.15v25.17Z"/>
<path d="m14.02 2.37 25.52 6.26-10.86 9.36-25.51-6.25 10.85-9.37Zm-.48-1.6L0 12.45l29.17 7.15L42.7 7.92 13.54.77ZM30.8 43.35 42.7 33.1l-11.9-2.92v13.18Z"/>
</symbol>
<symbol id="group-four">
<path d="M13.08 12.52c-2.39 0-4.32 1.74-4.32 3.9 0 2.15 1.93 3.89 4.32 3.89 2.38 0 4.32-1.74 4.32-3.9 0-2.15-1.94-3.9-4.32-3.9ZM44.96 11.27c0-2.98-1.32-5.85-3.67-7.96A13.25 13.25 0 0 0 32.46 0c-3.31 0-6.49 1.2-8.83 3.3a10.77 10.77 0 0 0-3.67 7.97v16.48s25-2.51 25-16.47ZM0 33.15a7.5 7.5 0 0 0 2.55 5.55A9.23 9.23 0 0 0 8.7 41c2.3 0 4.51-.83 6.14-2.3a7.5 7.5 0 0 0 2.56-5.54V21.69S0 23.44 0 33.15Zm8.7 2.06c-.45 0-.9-.12-1.27-.35a2.12 2.12 0 0 1-.84-.92 1.87 1.87 0 0 1-.13-1.19 2 2 0 0 1 .63-1.05c.32-.29.72-.48 1.16-.56.45-.08.9-.04 1.32.12.42.15.77.42 1.02.75a1.91 1.91 0 0 1-.28 2.6c-.2.2-.46.35-.74.45-.27.1-.57.16-.87.16v-.01ZM24.6 31.52v4.26h-.87v-4.27h.88Zm1.7 1.82v.68h-1.93v-.68h1.94Zm.21-1.83v.7h-2.14v-.7h2.14Zm4.02 2.04v.2c0 .32-.05.62-.14.87-.08.26-.2.48-.37.66-.16.18-.35.32-.57.42-.22.1-.47.14-.74.14a1.65 1.65 0 0 1-1.31-.56c-.16-.18-.28-.4-.37-.66a2.7 2.7 0 0 1-.14-.87v-.2c0-.33.05-.62.14-.87.08-.26.2-.48.37-.66.16-.19.35-.32.57-.42.22-.1.47-.14.74-.14s.51.04.73.14c.23.1.42.23.58.42.16.18.28.4.37.66.1.25.14.54.14.87Zm-.9.2v-.2c0-.23-.01-.43-.05-.6a1.3 1.3 0 0 0-.18-.44.78.78 0 0 0-.7-.35.8.8 0 0 0-.69.35c-.07.12-.13.26-.17.43-.04.18-.06.38-.06.6v.21c0 .23.02.42.06.6.04.17.1.32.18.43.09.12.18.21.3.27.11.06.24.1.4.1.14 0 .27-.04.39-.1a.79.79 0 0 0 .29-.27c.08-.11.14-.26.18-.43.04-.18.06-.38.06-.6Zm3.75.91a.56.56 0 0 0-.03-.2.39.39 0 0 0-.13-.17l-.25-.16c-.11-.05-.25-.1-.43-.15l-.55-.21a2.26 2.26 0 0 1-.46-.28c-.13-.1-.23-.23-.3-.36a1 1 0 0 1-.12-.49 1 1 0 0 1 .12-.48c.08-.15.19-.27.33-.38.14-.1.3-.18.5-.24a2.25 2.25 0 0 1 1.46.09c.23.11.41.26.54.46.13.2.2.42.2.68h-.88a.66.66 0 0 0-.08-.33.54.54 0 0 0-.23-.22.84.84 0 0 0-.4-.09.9.9 0 0 0-.37.07.5.5 0 0 0-.23.19.45.45 0 0 0-.08.26c0 .07.02.13.05.2l.17.16a3.86 3.86 0 0 0 .63.28c.23.06.44.14.61.23.18.09.33.19.45.3a1.1 1.1 0 0 1 .36.84c0 .18-.04.35-.1.5-.08.14-.19.27-.32.37-.14.1-.3.18-.5.23a2.37 2.37 0 0 1-1.81-.26c-.17-.11-.3-.26-.4-.43-.1-.18-.15-.39-.15-.63h.88c0 .14.02.25.06.34.05.1.1.17.18.22.07.06.16.1.27.13.1.02.22.04.34.04.15 0 .28-.03.38-.07a.46.46 0 0 0 .29-.44Zm3.38-3.14v4.26h-.87v-4.27h.87Zm1.32 0v.68H34.6v-.69h3.48Zm3.36 3.58v.68h-2.27v-.68h2.27Zm-1.98-3.59v4.27h-.88v-4.27h.88Zm1.68 1.74v.67h-1.97v-.67h1.97Zm.3-1.73v.68h-2.27v-.69h2.27Zm.51 0h1.6c.32 0 .6.04.83.14.24.1.42.24.55.44.13.19.19.42.19.7 0 .23-.04.43-.12.59-.07.16-.18.3-.32.4-.14.11-.3.2-.5.27l-.27.14h-1.38v-.68h1.02a.8.8 0 0 0 .38-.09c.1-.05.18-.13.23-.22a.7.7 0 0 0 .08-.34.77.77 0 0 0-.08-.36.51.51 0 0 0-.23-.23.85.85 0 0 0-.39-.08h-.7v3.58h-.89v-4.27Zm2.39 4.26-.98-1.9h.93l.99 1.86v.04h-.94Zm4.61-1.52h-1.09v-.69h1.1a.9.9 0 0 0 .4-.08c.1-.05.18-.13.23-.23.05-.1.08-.21.08-.34a.86.86 0 0 0-.08-.35.6.6 0 0 0-.23-.27.76.76 0 0 0-.4-.1h-.8v3.58h-.87v-4.27h1.66c.34 0 .62.07.86.19a1.3 1.3 0 0 1 .74 1.22c0 .27-.06.5-.19.71-.13.2-.31.36-.55.47-.24.1-.52.16-.86.16Zm5.07.84v.68h-2.27v-.68h2.27Zm-1.98-3.59v4.27h-.88v-4.27h.88Zm1.68 1.74v.67h-1.97v-.67h1.97Zm.3-1.73v.68h-2.27v-.69h2.27Zm2.48 0v4.26h-.88v-4.27h.88Zm1.31 0v.68h-3.48v-.69h3.48Zm3.36 3.58v.68H58.9v-.68h2.27ZM59.2 31.5v4.27h-.88v-4.27h.88Zm1.69 1.74v.67H58.9v-.67h1.98Zm.3-1.73v.68H58.9v-.69h2.27Zm.5 0h1.6c.32 0 .6.04.84.14.23.1.42.24.54.44.13.19.2.42.2.7 0 .23-.05.43-.12.59-.08.16-.19.3-.33.4-.14.11-.3.2-.49.27l-.28.14h-1.38v-.68h1.02a.8.8 0 0 0 .39-.09c.1-.05.18-.13.23-.22a.7.7 0 0 0 .08-.34.77.77 0 0 0-.08-.36.51.51 0 0 0-.23-.23.85.85 0 0 0-.4-.08h-.7v3.58h-.88v-4.27Zm2.4 4.26-.98-1.9h.93l.98 1.86v.04h-.94Zm3.67-1.12a.56.56 0 0 0-.03-.2.39.39 0 0 0-.13-.17l-.25-.16c-.11-.05-.25-.1-.43-.15l-.55-.21a2.26 2.26 0 0 1-.45-.28 1 1 0 0 1-.42-.85 1 1 0 0 1 .11-.48c.08-.15.19-.27.33-.38.14-.1.3-.18.5-.24a2.25 2.25 0 0 1 1.46.09c.23.11.41.26.54.46.13.2.2.42.2.68h-.88a.66.66 0 0 0-.07-.33.54.54 0 0 0-.24-.22.84.84 0 0 0-.4-.09.9.9 0 0 0-.37.07.5.5 0 0 0-.23.19.45.45 0 0 0-.08.26c0 .07.02.13.06.2.03.05.09.1.16.16a3.86 3.86 0 0 0 .63.28c.23.06.44.14.61.23.18.09.33.19.45.3a1.1 1.1 0 0 1 .36.84c0 .18-.04.35-.1.5-.08.14-.18.27-.32.37-.14.1-.3.18-.5.23a2.37 2.37 0 0 1-1.81-.26c-.17-.11-.3-.26-.4-.43-.1-.18-.15-.39-.15-.63h.88c0 .14.02.25.07.34.04.1.1.17.17.22.07.06.16.1.27.13.1.02.22.04.34.04.16 0 .28-.03.38-.07a.46.46 0 0 0 .3-.44Z"/>
</symbol>
<symbol id="logo">
<path d="M26.8 44.37c.24.28.37.62.36.97.01.23-.03.46-.13.67-.1.21-.25.4-.44.55-.48.33-1.07.49-1.66.45H22v-6.13h2.87c.56-.04 1.12.1 1.58.4.19.14.33.32.43.52.1.2.14.41.13.63.01.34-.1.67-.33.94-.23.24-.53.41-.88.48.4.06.74.25 1 .52Zm-3.44-.92h1.23c.27.02.55-.06.77-.2.1-.08.17-.17.21-.28.05-.1.07-.21.06-.33a.69.69 0 0 0-.06-.32.75.75 0 0 0-.2-.27 1.28 1.28 0 0 0-.8-.21h-1.2v1.6Zm2.12 2.35c.1-.08.18-.17.23-.28a.7.7 0 0 0 .06-.34.7.7 0 0 0-.06-.35.78.78 0 0 0-.23-.28 1.37 1.37 0 0 0-.83-.22h-1.29V46h1.3c.3.02.58-.06.82-.21ZM32.65 47l-1.6-2.39h-.6v2.4h-1.37v-6.13h2.6c.65-.04 1.3.14 1.8.52.37.33.59.77.62 1.23.04.47-.11.93-.42 1.3-.32.34-.76.56-1.24.63l1.7 2.45h-1.5Zm-2.2-3.22h1.13c.78 0 1.17-.31 1.17-.93a.83.83 0 0 0-.07-.37.9.9 0 0 0-.22-.32 1.3 1.3 0 0 0-.88-.25h-1.14l.02 1.87ZM40.14 45.78h-2.73L36.93 47h-1.44L38 40.95h1.55l2.5 6.06h-1.43l-.48-1.23Zm-.36-.93-1-2.6-1 2.6h2ZM49.52 47h-1.36l-3.05-4.16V47h-1.36v-6.13h1.36l3.05 4.2v-4.2h1.36V47ZM57.29 45.54c-.28.46-.71.84-1.23 1.08-.6.27-1.25.4-1.91.39h-2.43v-6.13h2.43c.66-.02 1.31.11 1.9.37.53.24.96.61 1.24 1.07a3.28 3.28 0 0 1 0 3.22Zm-1.56-.15c.4-.4.6-.92.6-1.46 0-.54-.2-1.05-.6-1.46a2.54 2.54 0 0 0-1.7-.52h-.95v3.97h.95c.62.03 1.23-.16 1.7-.53ZM41 6.77s17.56 5.97 17.19 14.6V36S40.64 30.02 41 21.38V6.77ZM73.84 32.57A25.77 25.77 0 0 1 85 28.87v-4.58a22.54 22.54 0 0 0-11.16 8.28Z"/>
<path d="M71.85 33.95A23.19 23.19 0 0 1 85 23.33V10.15s-25.02 8.5-24.49 20.81v20.8s1.12-.37 2.87-1.09c0-.66 0-1.33.08-2 .52-5.72 3.53-11.01 8.39-14.72Z"/>
<path d="M69.47 41.68c.13-1.45.42-2.87.87-4.26a19.1 19.1 0 0 0-5.3 12.56 75.86 75.86 0 0 0 4.82-2.28 19.43 19.43 0 0 1-.4-6.02ZM70.46 41.75c-.17 1.82-.06 3.66.31 5.46C77.61 43.53 85.3 37.84 85 30.96v-.6c-4.88.5-9.45 2.42-13 5.47a18.82 18.82 0 0 0-1.53 5.92Z"/>
</symbol>
</defs>
</svg>
